<svg xmlns="http://www.w3.org/2000/svg" viewBox="0 0 167.3 50">
    <path d="M87.9,27h4.3v22.6l-4.3-0.1V27z M81.1,49.5l4.3,0.1V27h-4.3V49.5z M62.2,43c0,2.1-0.7,3.6-2,4.7c-1.3,1.1-3.3,1.8-5.7,1.8
	H44.2V27h10.1c2.4,0,4.3,0.6,5.5,1.6c1.2,1.1,1.8,2.5,1.8,4.2c0,2.3-1.4,3.8-3.6,4.5v0.1C60.5,38.1,62.2,40.2,62.2,43z M48.8,36.1h5
	c2,0,3.4-0.9,3.4-2.7c0-1.7-1.2-2.7-3.3-2.7h-5.1V36.1z M57.7,42.6c0-2.1-1.6-3.3-3.7-3.3h-5.2v6.4h5.3
	C56.3,45.7,57.7,44.5,57.7,42.6z M74.4,42.6L74.4,42.6c0,2.2-1.3,3.7-3.3,3.7c-1.8,0-2.7-1-2.7-2.9V33.3h-4.3v10.8
	c0,3.5,2,5.8,5.6,5.8c2.3,0,3.6-0.8,4.7-2.3h0.1v1.9h4.2V33.3h-4.3V42.6z M137.2,32.8c-2.2,0-3.7,1-4.9,2.7v-2.2h-4.2v16.2h4.3v-9.2
	c0-2.2,1.4-3.7,3.3-3.7c1.8,0,2.8,1.3,2.8,3v9.9h4.3V38.9C142.8,35.3,140.6,32.8,137.2,32.8z M121.4,49.5h4.3V33.3h-4.3V49.5z
	 M116.8,44.7v-8.6h2.8v-2.8h-2.8v-5h-4.2v5h-2.3v2.9h2.3v9.5c0,3.1,2.3,3.9,4.4,3.9c1.7,0,2.7-0.1,2.7-0.1v-3.2c0,0-0.8,0-1.3,0
	C117.5,46.3,116.8,45.9,116.8,44.7z M121.4,31.2h4.3v-3.9h-4.3V31.2z M109.9,42.7H98.2c0.3,2.5,1.7,4,4.2,4c1.7,0,2.7-0.8,3.1-2h4.2
	c-0.6,2.9-3.2,5.3-7.4,5.3c-5.3,0-8.4-3.8-8.4-8.6c0-4.8,3.3-8.5,8-8.5C107.1,32.9,109.9,36.9,109.9,42.7z M105.4,39.7
	c-0.1-2.1-1.5-3.5-3.5-3.5c-2.2,0-3.3,1.4-3.7,3.5H105.4z M19.1,34.4H33V29H19.1V34.4z M9.2,9.1H33V0H9.2V9.1z M19.1,23.6H33v-5.4
	H19.1V23.6z M0,50h9.2V9.1H0V50z"/>
    <path fill="currentColor" d="M44.2,0h16.2v3.9H48.8v5.3h9.9v3.9h-9.9v9.5h-4.6V0z M79,22.6h4.3V0H79V22.6z M85.8,22.6h4.4V0h-4.4V22.6z M71.9,15.7
	c0,2.2-1.3,3.7-3.3,3.7c-1.8,0-2.7-1-2.7-2.9V6.4h-4.3v10.8c0,3.5,2,5.8,5.6,5.8c2.3,0,3.6-0.8,4.7-2.3l0.1,1.9h4.2V6.4h-4.3V15.7z
	 M160.5,12.6l6-6.2h-5.2l-5.8,6.1V0h-4.3v22.6h4.3v-5.5l1.9-1.9l4.6,7.4h5.2L160.5,12.6z M133.2,22.5v0.2H129
	c-0.2-0.4-0.4-1.2-0.5-1.9c-0.9,1.2-2.1,2.2-4.9,2.2c-3.3,0-5.7-1.7-5.7-5c0-3.6,2.9-4.7,6.5-5.2c2.7-0.4,3.9-0.6,3.9-1.8
	s-0.9-1.9-2.7-1.9c-2,0-3,0.7-3.1,2.3h-3.8c0.1-2.8,2.3-5.3,7-5.3c4.9,0,6.9,2.2,6.9,6v8.2C132.6,21.5,132.8,22.3,133.2,22.5z
	 M128.5,14.5c-0.8,0.4-1.9,0.7-3,0.9c-2.3,0.5-3.4,1-3.4,2.5s1,2.1,2.5,2.1c2.6-0.1,3.9-1.6,3.9-3.1V14.5z M142.4,19.5
	c-2.7,0-3.9-2-3.9-5.1c0-3.1,1.3-5.1,3.9-5.1c1.6,0,2.7,1.1,3,2.5h4.2c-0.6-3.5-3.2-5.9-7.4-5.9c-4.9,0-8.1,3.8-8.1,8.6
	s3.2,8.5,8.5,8.5c4.3,0,7-2.8,7.3-6.2h-4.2C145.4,18.6,144.1,19.5,142.4,19.5z M113.6,17.7V8.5h2.8V5.7h-2.8V1.3h-4.2v4.4h-2.3v2.9
	h2.3v10.1c0,3.1,2.3,3.9,4.4,3.9c1.7,0,2.7-0.1,2.7-0.1v-3.2c0,0-0.8,0-1.3,0C114.3,19.3,113.6,18.9,113.6,17.7z M100.8,12.7
	c-2.3-0.5-4.5-0.6-4.5-2c0-1.2,1.1-1.8,2.8-1.8c1.8,0,2.9,0.7,3.1,2.4h3.9c-0.3-3.3-2.7-5.4-7-5.4c-3.7,0-6.6,1.7-6.6,5.2
	s2.9,4.3,5.8,4.9c2.2,0.4,4.3,0.6,4.3,2.1c0,1.2-1.1,1.9-3,1.9c-2,0-3.3-0.8-3.6-2.7h-4c0.3,3.5,2.9,5.7,7.6,5.7
	c4.1,0,6.9-1.9,6.9-5.2C106.5,14,103.5,13.3,100.8,12.7z"/>
</svg>