<svg xmlns="http://www.w3.org/2000/svg" viewBox="0 0 412.03 117.71"><path d="M43.77,69h42V80h-42V69Zm0-22h42V58h-42V47Zm-41-23h23v90h-23V24Zm23-23h60V24h-60V1Zm192,64h13v49h-13V65Zm83,12h12v37h-12V77Zm-121,0h12v37H181.31l-0.47-4a12.08,12.08,0,0,1-10,4.65c-4,0-7.37-1.17-9.45-3.52A15.77,15.77,0,0,1,157.77,101V77h11v24.1c0,3.15,1.94,4.73,5,4.73,2.62,0,5-1,6-2.83V77Zm172,13.26V114h-11V90.75c0-1.86,0-3.23-.71-4.1s-1.67-1.31-3.67-1.31A5,5,0,0,0,331.77,88v26h-13V77h11.51l0.34,4.42a12.29,12.29,0,0,1,10.46-4.91A11.12,11.12,0,0,1,349.49,80h0C351.37,82,351.77,85.65,351.77,90.26ZM300.77,65h12v9h-12V65Zm-102,0h13v49h-13V65Zm95.05,40.74a20,20,0,0,0,2.95-.27v8.2a27,27,0,0,1-6.77,1c-3.94,0-7.2-.93-9.05-2.79a11.7,11.7,0,0,1-3.17-8.48V86h-4V77h4V68h12v9h6v9h-6v16a6.44,6.44,0,0,0,1,3h0C291.74,105,292.71,105.85,293.82,105.74Zm-38.59-29.3a18.4,18.4,0,0,0-9.52,2.37,16.14,16.14,0,0,0-6.46,6.69,22.92,22.92,0,0,0-2.48,10v1a18.22,18.22,0,0,0,5.63,13.16c3.5,3.37,8.29,5,13.94,5a20.92,20.92,0,0,0,8.54-1.75,14.78,14.78,0,0,0,6.11-4.71l-5.22-6.2a10.29,10.29,0,0,1-8.5,3.81,8,8,0,0,1-5.37-1.86,8.71,8.71,0,0,1-2.69-5h22.54V94.72c0-5.74-1.36-10.22-4.36-13.43S260.41,76.47,255.23,76.44Zm-6,14.56c0.66-4,2.66-6.17,6-6.17a6.08,6.08,0,0,1,4.35,1.76A6.54,6.54,0,0,1,261.12,91H249.23ZM115.92,113.86V64h17.46q9.07,0,13.77,3.48t4.69,10.19A11.26,11.26,0,0,1,150,84.12a10.87,10.87,0,0,1-5.24,4.09,10.53,10.53,0,0,1,6,3.87A11.44,11.44,0,0,1,153,99.2q0,7.19-4.59,10.89t-13.08,3.77H115.92Zm10.27-29h7.6q7.77-.14,7.77-6.2,0-3.39-2-4.88t-6.22-1.49h-7.19V84.89Zm0,7.26v13.46H135a8.49,8.49,0,0,0,5.67-1.73,5.93,5.93,0,0,0,2-4.78q0-6.85-7.09-7h-9.42Z"/><path fill="currentColor" d="M198.77,2h13V52h-13V2Zm-19,39h0.17c-1,2-3.47,2.93-6.09,2.93-3.06,0-5.09-1.48-5.09-4.63V15h-11V39.23a15.77,15.77,0,0,0,3.65,10.13c2.08,2.35,5.41,3.52,9.45,3.52a12.16,12.16,0,0,0,10-4.77L181.31,52h10.46V15h-12V41Zm-64,11h11V11h25V2h-36V52Zm15-19h19V24h-19v9Zm87,19h13V2h-13V52Zm137.52-9.31A5.11,5.11,0,0,1,351.54,44a4.59,4.59,0,0,1-4.22-2.14Q346,39.72,346,34.17a39.9,39.9,0,0,1,.24-5q0.75-5.63,5.21-5.62h0c1.57,0,2.81,1.28,3.74,2.3s1.4,2.16,1.4,5.16H367.3c0-6-1.41-8.9-4.22-11.56a16.16,16.16,0,0,0-11.41-4.37,17.65,17.65,0,0,0-9.19,2.11,14.51,14.51,0,0,0-5.77,6.48,21.94,21.94,0,0,0-1.94,9.76V33.9c0,6,1.42,10.6,4.51,14s7.25,5,12.6,5A16.11,16.11,0,0,0,363,49a12.84,12.84,0,0,0,4.3-10H356.57C356.57,42,356.17,41.82,355.29,42.69ZM330.12,44a18.24,18.24,0,0,0,1.65,7.63V52H319.7a16,16,0,0,1-1.09-3.18,10.77,10.77,0,0,1-8.85,4.12,13,13,0,0,1-8.88-3.12A9.9,9.9,0,0,1,297.28,42a9.45,9.45,0,0,1,4.43-8.56c3-2,7.24-2.43,12.87-2.43h3.2V27.76c0-3.4-1.29-5-4.22-5-2.72,0-3.91,1.19-3.91,4.19H298.16a10,10,0,0,1,4.54-8.82,19.09,19.09,0,0,1,11.59-3.36c4.7,0,8.5,1.08,11.23,3.37a11.79,11.79,0,0,1,4.26,9.37V44h0.35Zm-12.35-8h-3c-4,0-6,1.71-6,5.3a3.16,3.16,0,0,0,1.1,2.47,3.91,3.91,0,0,0,2.71,1,5.76,5.76,0,0,0,3.36-.92c0.94-.61,1.85-1.31,1.85-2.08V36Zm76.63-5.77L407.3,15H393.55l-9.15,11-1.62,1.72V2h-11V52h11V41.73l3.69-3.34L395,52h13.14ZM288.77,7h-12v8h-5v9h5V41.62c0,3.79,1,6.62,2.89,8.48s4.74,2.79,8.69,2.79a25.14,25.14,0,0,0,6.41-1V43.7a18.53,18.53,0,0,1-2.81.2c-1.48,0-2-.27-2.53-0.82a4.36,4.36,0,0,1-.66-2.89V24h6V15h-6V7ZM250.53,23.26a4.54,4.54,0,0,1,3-.85c3.11,0,4.66,1.59,4.66,4.59H269.7a9.57,9.57,0,0,0-4.43-8.84c-3-2.2-6.86-3.38-11.71-3.38-4.52,0-8.17,1.05-11,3.25a10.14,10.14,0,0,0-4.19,8.34,9,9,0,0,0,1.52,5,11.84,11.84,0,0,0,4.26,3.76,26.51,26.51,0,0,0,7.08,2.5A23.33,23.33,0,0,1,257,39.52a2.65,2.65,0,0,1,1.53,2.35,3.05,3.05,0,0,1-1.17,2.48,5.51,5.51,0,0,1-3.52,1,7.1,7.1,0,0,1-4.19-1.4c-1.09-.78-1.66-2-1.7-4H237.29a12.29,12.29,0,0,0,2.08,6.38,14.34,14.34,0,0,0,5.79,4.74,20,20,0,0,0,8.44,1.76c4.74,0,8.61-1,11.59-3.14a9.63,9.63,0,0,0,4.48-8.19q0-7.39-8.31-10.24a41.44,41.44,0,0,0-5.77-1.46,14.13,14.13,0,0,1-4.78-1.56,2.85,2.85,0,0,1-1.5-2.48A3.11,3.11,0,0,1,250.53,23.26Z"/></svg>