<svg xmlns="http://www.w3.org/2000/svg" viewBox="0 0 445 190.58"><path d="M265,25H203V2h62V25Zm0,34V48H221V59h44Zm0,11H221V81h44V70Zm-85,45h23V25H180v90Zm156,73h10V149H336v39Zm-16,0h11V149H320v39Zm-15-9a5.65,5.65,0,0,1-4.9,2.26c-2.45,0-4.1-1.26-4.1-3.78V158h-8v19.37a12.44,12.44,0,0,0,2.64,8.13c1.66,1.88,4,2.84,7.28,2.84a9.61,9.61,0,0,0,8-3.66l0.38,3.31H315V158H305v21Zm-23.06-8.36a9,9,0,0,1,1.66,5.48c0,3.89-1.23,6.86-3.69,8.82S273.81,188,269,188H253V148h14.15c5.1,0,9,1,11.64,2.86a10.42,10.42,0,0,1,2.58,13.45,8.26,8.26,0,0,1-4.17,3.2A8.4,8.4,0,0,1,281.94,170.61ZM262,165h5.44a7,7,0,0,0,4.46-1.26,4.34,4.34,0,0,0,1.34-3.42,4,4,0,0,0-1.44-3.49c-1-.74-2.51-0.84-4.66-0.84H262v9Zm12.09,11h0c0-3-1.64-6-4.93-6H262v11h6.76a6.4,6.4,0,0,0,4-1.26A5.64,5.64,0,0,0,274.09,176Zm166.72-15h0a7.85,7.85,0,0,0-6.74-3.05,9.63,9.63,0,0,0-8.37,3.68L425.45,158H416v30h11V167c1-1.38,2-2.23,3.55-2.13a3.09,3.09,0,0,1,2.8,1c0.61,0.7.65,1.79,0.65,3.28V188h9V168.78C443,165.09,442.32,162,440.81,161ZM402,156h10v-7H402v7Zm-26.67,5.6c2.4,2.57,3.67,6.15,3.67,10.74V176H360.61a8.8,8.8,0,0,0,2.15,3.89,6.31,6.31,0,0,0,4.3,1.37,8.24,8.24,0,0,0,6.8-3l4.19,5a11.76,11.76,0,0,1-4.87,3.77,16.53,16.53,0,0,1-6.79,1.4c-4.52,0-8.27-1.34-11.07-4A14.41,14.41,0,0,1,351,173.77V173a18.15,18.15,0,0,1,1.81-8,12.5,12.5,0,0,1,5-5.35,14.72,14.72,0,0,1,7.61-1.9C369.56,157.75,372.93,159,375.33,161.6Zm-5.21,7.4a5.54,5.54,0,0,0-1.24-3.43,4.78,4.78,0,0,0-3.48-1.32c-2.66,0-4.26,1.75-4.79,4.75h9.51ZM402,188h10V158H402v30Zm-8.12-7h0a7.91,7.91,0,0,1-.87-2.85V165h5v-7h-5v-7h-9v7h-4v7h4v14.29c0,3,.87,5.3,2.35,6.78s3.9,2.23,7.05,2.23a26.18,26.18,0,0,0,5.6-.8v-6.56c-1,.11-1.71.43-2.54,0.43A20.43,20.43,0,0,1,393.88,181Z"/><path fill="currentColor" d="M69,148H80v40H69V148ZM54,179h0c-0.8,2-2.8,2.33-4.89,2.33-2.45,0-4.09-1.2-4.09-3.72V158H36v19.56a12.74,12.74,0,0,0,3,8.1c1.66,1.88,4.39,2.82,7.62,2.82a9.69,9.69,0,0,0,8-3.7L55.08,188H64V158H54v21ZM2,188h9V155H34v-7H2v40Zm14-15H32v-8H16v8Zm68,15H95V148H84v40Zm111.86-7.86a4.17,4.17,0,0,1-3,1.14,3.63,3.63,0,0,1-3.38-1.67c-0.71-1.14-1.06-3.17-1.06-6.13a31.74,31.74,0,0,1,.19-4q0.6-4.5,4.17-4.49h0c1.26,0,2.25,1,3,1.86s1.12,2.14,1.12,4.14h8.61c0-5-1.13-7.13-3.38-9.26a12.93,12.93,0,0,0-9.13-3.5,14.12,14.12,0,0,0-7.35,1.68,11,11,0,0,0-4.34,5.18c-1.1,2.28-1.27,4.8-1.27,7.81v0.38c0,4.76.86,8.48,3.33,11.2s5.66,4,9.94,4a12.89,12.89,0,0,0,8.85-3.31,10.66,10.66,0,0,0,3.37-8.19h-8.6C196.89,180,196.56,179.44,195.86,180.14Zm-20.14.86c0,3,.28,4.58,1.28,6.48V188h-9.61a19.87,19.87,0,0,1-.87-2.66,8.57,8.57,0,0,1-7.08,3.24,10.43,10.43,0,0,1-7.1-2.53,8,8,0,0,1-2.89-6.27,7.55,7.55,0,0,1,3.54-6.84c2.36-1.6,5.79-1.94,10.3-1.94H166v-2.62c0-2.72-1.11-3.85-3.45-3.85-2.18,0-3.2.47-3.2,3.47h-9.19a8,8,0,0,1,3.63-7.17,15.32,15.32,0,0,1,9.27-2.74c3.76,0,7.08.84,9.26,2.67a9.63,9.63,0,0,1,3.69,7.47V181h-0.28ZM166,175h-2.56c-3.2,0-4.82,1.35-4.82,4.23a2.52,2.52,0,0,0,.88,2,3.12,3.12,0,0,0,2.17.8,4.85,4.85,0,0,0,2.77-.74c0.75-.49,1.56-1,1.56-1.67V175Zm61.14-4.62L237.47,158h-11l-7.24,8.85L218,168.31V148h-9v40h9v-8.44l2.88-2.56,6.76,11h10.51ZM143,152H133v6h-4v7h4v14.47c0,3,.83,5.3,2.34,6.78s4.08,2.23,7.24,2.23a25.71,25.71,0,0,0,5.42-.8v-6.55a20.85,20.85,0,0,1-2.53.16,2.23,2.23,0,0,1-2-.66,3.51,3.51,0,0,1-.49-2.31V165h5v-7h-5v-6Zm-31,12.78a3.56,3.56,0,0,1,2.4-.56c2.49,0,3.73.78,3.73,3.78h9.21a8.07,8.07,0,0,0-3.54-7.18,15.42,15.42,0,0,0-9.37-2.76c-3.62,0-6.54.81-8.8,2.57a8.09,8.09,0,0,0-3.35,6.66,7.18,7.18,0,0,0,1.22,4,9.46,9.46,0,0,0,3.41,3,21.21,21.21,0,0,0,5.66,2,18.66,18.66,0,0,1,4.66,1.47,2.12,2.12,0,0,1,1.22,1.88,2.44,2.44,0,0,1-.94,2,4.41,4.41,0,0,1-2.82.8,5.77,5.77,0,0,1-3.35-1.2c-0.87-.62-1.33-1.25-1.36-3.25h-8.57a9.06,9.06,0,0,0,1.66,5.19,11.58,11.58,0,0,0,4.63,3.84,16,16,0,0,0,6.75,1.43c3.79,0,6.89-.79,9.27-2.5a7.69,7.69,0,0,0,3.58-6.55q0-5.91-6.65-8.19a33.14,33.14,0,0,0-4.62-1.17,11.3,11.3,0,0,1-3.82-1.25,2.28,2.28,0,0,1-1.2-2A2.49,2.49,0,0,1,112,164.78Z"/></svg>