<svg xmlns="http://www.w3.org/2000/svg" viewBox="0 0 432.5 190.58"><path d="M321.5,149h11v39h-11V149Zm67,9h10v30h-10V158Zm-97,0h10v30h-8.84l-0.38-3.14a9.73,9.73,0,0,1-8,3.77c-3.24,0-6-.92-7.71-2.81a12.74,12.74,0,0,1-3.06-8.11V158h9v19.78c0,2.53,1.64,3.8,4.1,3.8a5.64,5.64,0,0,0,4.9-2.27V158Zm138,11.08V188h-9V169.47c0-1.49.12-2.59-.49-3.29a3.25,3.25,0,0,0-2.88-1.05c-1.52-.1-2.63.75-3.63,2.14V188h-10V158h8.74l0.27,3.77a9.71,9.71,0,0,1,8.4-3.75c3.07,0,5.23,1,6.76,3h0C429.17,162,429.5,165.38,429.5,169.08ZM388.5,149h10v7h-10v-7Zm-82,0h11v39h-11V149Zm76.56,32.55a20.68,20.68,0,0,0,2.44-.26v6.58a25.33,25.33,0,0,1-5.52.8c-3.16,0-5.62-.75-7.1-2.24a9.33,9.33,0,0,1-2.38-6.81V166h-4v-8h4v-7h9v7h5v8h-5v12.48c0,0.81.6,1.52,1.06,2.52h0C381.31,181,382.16,181.64,383.06,181.55ZM352,158a14.77,14.77,0,0,0-7.64,1.9,12.58,12.58,0,0,0-5,5.37,18.23,18.23,0,0,0-1.83,8v0.8a14.47,14.47,0,0,0,4.36,10.56c2.81,2.71,6.58,4.05,11.11,4.05a16.61,16.61,0,0,0,6.81-1.4,11.81,11.81,0,0,0,4.89-3.78l-4.2-5a8.27,8.27,0,0,1-6.83,3.06,6.47,6.47,0,0,1-4.31-1.54,5.93,5.93,0,0,1-2.16-4.06H365.5v-3.34q0-6.91-3.61-10.78C359.48,159.3,356.16,158,352,158Zm-4.82,12c0.53-4,2.14-5.12,4.81-5.12a5,5,0,0,1,3.49,1.49,4.38,4.38,0,0,1,1.24,3.62h-9.55ZM258.5,25h-62V2h62V25Zm0,34V48h-44V59h44Zm0,11h-44V81h44V70Zm-85,45h23V25h-23v90Zm66.77,73.05v-40h14q7.27,0,11,2.79t3.76,8.17a9,9,0,0,1-1.51,5.17,8.72,8.72,0,0,1-4.2,3.28,8.44,8.44,0,0,1,4.85,3.1A9.17,9.17,0,0,1,270,176.3q0,5.77-3.68,8.73t-10.49,3H240.27Zm8.24-23.23h6.09q6.23-.11,6.23-5a4.59,4.59,0,0,0-1.58-3.91,8.31,8.31,0,0,0-5-1.19H248.5v10.08Zm0,5.82v10.79h7.06A6.81,6.81,0,0,0,260.1,180a4.75,4.75,0,0,0,1.63-3.83q0-5.49-5.68-5.57H248.5Z"/><path fill="currentColor" d="M67.5,148h11v40h-11V148Zm-15,31h0.2c-0.8,2-2.91,2.38-5,2.38-2.44,0-4.2-1.13-4.2-3.64V159h-8v18.68a12.36,12.36,0,0,0,2.67,8.08c1.66,1.87,4.19,2.81,7.41,2.81a9.52,9.52,0,0,0,7.89-3.74L53.8,188h8.7V159h-10v20Zm-50,9h8V155h20v-7H2.5v40Zm11-15h16v-8h-16v8Zm70,15h10V148h-10v40Zm109-7.81a4.18,4.18,0,0,1-3,1.17,3.61,3.61,0,0,1-3.36-1.64c-0.71-1.14-1.06-3.15-1.06-6.1a31.57,31.57,0,0,1,.19-4c0.4-3,1.78-4.48,4.15-4.47h0a4.36,4.36,0,0,1,3,1.78c0.74,0.81,1.12,1.06,1.12,4.06h8.58c0-5-1.12-7-3.36-9.16a12.86,12.86,0,0,0-9.1-3.45,14.08,14.08,0,0,0-7.33,1.7,11.21,11.21,0,0,0-4.42,5.17,17.54,17.54,0,0,0-1.37,7.79v0.38c0,4.74,1,8.45,3.42,11.16s5.69,4,10,4a13,13,0,0,0,8.84-3.36c2.26-2,3.5-4.22,3.39-8.22h-8.57C193.53,180,193.2,179.5,192.5,180.19ZM172.43,182c0,2,1.07,3.68,1.07,5.57V188h-9.37a19.48,19.48,0,0,1-.87-2.6,8.56,8.56,0,0,1-7.06,3.25,10.38,10.38,0,0,1-7.08-2.51,7.91,7.91,0,0,1-2.88-6.25,7.64,7.64,0,0,1,3.53-6.89c2.35-1.59,5.77-2,10.26-2h2.46v-2.46c0-2.71-1-3.91-3.32-3.91-2.17,0-3.07.37-3.07,3.37H147c-0.12-4,1.24-5.54,3.62-7.07a15.23,15.23,0,0,1,9.24-2.7c3.75,0,6.95.85,9.13,2.68a9.54,9.54,0,0,1,3.57,7.46V182h-0.07Zm-9.93-7h-2.31c-3.19,0-4.8,1.42-4.8,4.28a2.58,2.58,0,0,0,.88,2,3.13,3.13,0,0,0,2.16.81,4.45,4.45,0,0,0,2.64-.73,2.53,2.53,0,0,0,1.43-1.65V175Zm61.18-4.11L234,159H223l-7.25,8.41-1.25,1.05V148h-9v40h9v-8.32l2.9-2.6L224.17,188h10.48ZM139.5,152h-10v7h-3v6h3v14.59a9.22,9.22,0,0,0,2.51,6.76c1.5,1.48,4,2.22,7.16,2.22a25.13,25.13,0,0,0,5.34-.8v-6.53a18.55,18.55,0,0,1-2.37.16,2.42,2.42,0,0,1-2.06-.65,3.45,3.45,0,0,1-.57-2.3V165h5v-6h-5v-7ZM109,165a3.6,3.6,0,0,1,2.39-.64c2.48,0,3.72.69,3.72,3.69h9.18c0.13-4-1.21-5.5-3.53-7.08a15.35,15.35,0,0,0-9.34-2.71,13.84,13.84,0,0,0-8.77,2.58,8.08,8.08,0,0,0-3.34,6.65,7.17,7.17,0,0,0,1.21,4,9.44,9.44,0,0,0,3.4,3,21.14,21.14,0,0,0,5.64,2,18.6,18.6,0,0,1,4.64,1.47,2.11,2.11,0,0,1,1.22,1.87,2.43,2.43,0,0,1-.93,2,4.39,4.39,0,0,1-2.81.8,5.83,5.83,0,0,1-3.34-1.26c-0.87-.62-1.32-1.3-1.36-3.3H98.42a9.21,9.21,0,0,0,1.66,5.24,11.61,11.61,0,0,0,4.62,3.86,16,16,0,0,0,6.73,1.44c3.78,0,6.86-.78,9.24-2.48a7.66,7.66,0,0,0,3.57-6.52q0-5.89-6.63-8.16a33,33,0,0,0-4.6-1.16A11.26,11.26,0,0,1,109.2,169a2.27,2.27,0,0,1-1.2-2A2.48,2.48,0,0,1,109,165Z"/></svg>