<svg xmlns="http://www.w3.org/2000/svg" xmlns:xlink="http://www.w3.org/1999/xlink" viewBox="0 0 361 182.4" style="enable-background:new 0 0 361 182.4;" xml:space="preserve">
<style type="text/css">
	.st0{fill:#FFD300;}
</style>
<path d="M223,162.8c1.4-0.5,2.6-1.5,3.5-2.7c0.8-1.3,1.3-2.8,1.3-4.3c0.2-2.6-1-5.1-3.1-6.6c-2.1-1.6-5.1-2.1-9.2-2.1H204v33h12.7
	c3.8,0,6.7-0.9,8.7-2.6s3.1-4.1,3.1-7.3c0.1-1.7-0.5-3.4-1.5-4.8C226,164.1,224.6,163.2,223,162.8z M211,152h4.4
	c1.5-0.1,2.9,0.3,4.1,1.1c0.9,0.9,1.4,2.2,1.3,3.5c0,2.7-1.7,4.4-5.2,4.4H211V152z M220.3,173.1c-1.1,0.8-2.4,1.1-3.8,0.9H211v-9
	h5.9c3.1,0,4.7,1.7,4.7,4.8C221.7,171,221.2,172.2,220.3,173.1z M248,155h6v25h-5.8l-0.2-2.6c-1.7,2-4.2,3.1-6.8,2.9
	c-2.3,0.2-4.5-0.7-6.1-2.3c-1.5-1.9-2.3-4.3-2.1-6.7V155h7v16.2c0,2.6,1.1,3.9,3.4,3.9c1.8,0.2,3.6-0.7,4.6-2.3L248,155L248,155z
	 M260,145h6v35h-6V145z M272,145h7v35h-7V145z M294.8,154.8c-2.1,0-4.2,0.5-6,1.6c-1.8,1.1-3.3,2.6-4.2,4.5c-1,2.1-1.6,4.3-1.6,6.7
	v0.6c-0.1,3.3,1.2,6.6,3.6,8.9c2.4,2.3,5.6,3.5,8.9,3.3c2,0,3.9-0.4,5.7-1.2c1.6-0.7,3-1.9,4-3.3l-3.2-3.6c-1.4,1.9-3.7,2.9-6,2.8
	c-1.5,0.1-2.9-0.4-4.1-1.3c-1-1-1.6-2.3-1.9-3.8h16v-3c0-3.9-1.1-6.9-3-9.1C300.9,155.7,297.9,154.6,294.8,154.8z M299,165h-8.9
	c0.2-1.3,0.8-2.6,1.6-3.7c0.8-0.9,2-1.3,3.2-1.3c1.2-0.1,2.3,0.4,3.1,1.2c0.8,1,1.2,2.2,1.1,3.4V165z M317,155h5v5h-5v12.4
	c0,0.7,0.2,1.4,0.7,2c0.6,0.5,1.4,0.7,2.2,0.6c0.7,0,1.4-0.1,2.1-0.2v5c-1.3,0.4-2.6,0.6-4,0.6c-4.6,0-7-2.3-7-7V160h-4v-5h4v-6h6
	L317,155L317,155z M331.6,146.4c1.3,1.4,1.3,3.6,0,4.9c-1.6,1.3-3.8,1.3-5.4,0c-1.3-1.4-1.3-3.5,0-4.9
	C327.8,145.1,330.1,145.1,331.6,146.4z M326,155h6v25h-6V155z M359,164v16h-7v-15.9c0.1-1.1-0.2-2.2-0.8-3.1c-0.8-0.7-1.9-1.1-2.9-1
	c-1.8-0.1-3.4,0.9-4.3,2.4V180h-6v-25h5.8l0.2,3c1.7-2.2,4.4-3.3,7.1-3.2c2.6,0,4.6,0.8,5.9,2.3S359,160.9,359,164z"/>
<path class="st0" d="M2,147h21v5H8v9h14v5H8v14H2V147z M41,172.7c-0.9,1.6-2.7,2.5-4.5,2.3c-2.3,0-3.5-1.3-3.5-3.9V155h-7v16.4
	c-0.1,2.4,0.6,4.8,2.2,6.7c1.6,1.6,3.8,2.4,6.1,2.3c2.6,0.1,5.1-0.9,6.8-2.9l0.2,2.6H47v-25h-6V172.7z M53,180h6v-35h-6V180z
	 M65,180h7v-35h-7V180z M91.9,166.2c-1.4-0.5-2.7-0.8-4.2-1.1c-1.2-0.2-2.4-0.6-3.5-1.2c-0.6-0.4-1-1-1-1.8c0-0.7,0.3-1.5,0.9-1.9
	c0.7-0.5,1.7-0.8,2.6-0.8c1.1,0,2.1,0.3,2.9,1.1c0.6,0.7,0.9,1.6,0.9,2.5H97c0.2-2.3-0.9-4.6-2.8-5.9c-2.2-1.6-4.8-2.4-7.5-2.3
	c-2.6-0.1-5.1,0.7-7.1,2.2c-1.7,1.3-2.7,3.3-2.7,5.5c0,3.8,2.9,6.3,8.8,7.5c1.3,0.2,2.6,0.6,3.8,1.2c0.7,0.4,1.2,1.1,1.2,1.9
	c0,0.8-0.4,1.5-1,1.9c-0.9,0.5-1.9,0.8-2.9,0.7c-1.2,0-2.3-0.3-3.2-1c-0.8-0.7-1.2-1.7-1.3-2.7H76c-0.1,1.5,0.4,3,1.4,4.2
	c1,1.3,2.3,2.4,3.8,3.1c1.7,0.8,3.6,1.2,5.5,1.1c2.7,0.1,5.3-0.6,7.5-2.1c1.8-1.2,2.9-3.3,2.9-5.5C97.1,169.7,95.4,167.4,91.9,166.2
	z M109.7,174.4c-0.5-0.6-0.7-1.3-0.7-2V160h4v-5h-4v-6h-6v6h-4v5h4v13.4c0,4.7,2.4,7,7,7c1.4,0,2.7-0.2,4-0.6v-5
	c-0.7,0.1-1.4,0.2-2.1,0.2C111.1,175,110.3,174.8,109.7,174.4L109.7,174.4z M137,174.2c0,2.4,1,4.1,1,5.3v0.5h-6.5
	c-0.3-0.7-0.5-1.5-0.7-2.2c-1.6,1.8-3.9,2.7-6.2,2.6c-2.2,0.1-4.3-0.7-6-2.1c-1.6-1.3-2.4-3.2-2.4-5.3c-0.1-2.4,1-4.6,2.9-6
	c1.9-1.4,4.8-2,8.4-2h3.5v-1.6c0-1-0.4-2-1.1-2.7c-1.6-1.3-3.9-1.3-5.6-0.1c-0.7,0.6-1,1.5-0.9,2.4h-6.6c-0.1-1.5,0.4-3,1.3-4.2
	c0.9-1.3,2.2-2.4,3.7-3.1c1.7-0.7,3.6-1,5.4-1c2.6-0.1,5.2,0.7,7.2,2.3c1.8,1.6,2.7,4,2.6,6.4L137,174.2L137,174.2z M131,169h-2.9
	c-3.3,0-5.1,1-5.3,3.3v0.2c0,0.8,0.3,1.5,0.9,2c0.7,0.6,1.5,0.8,2.4,0.8c1,0,1.9-0.2,2.8-0.6c0.7-0.5,1.4-1.1,2-1.8L131,169L131,169
	z M149.1,161.8c0.8-1.1,2.1-1.8,3.4-1.7c1.1-0.1,2.2,0.2,3,1c0.7,0.8,1.1,1.8,1.2,2.9h6.2c0.1-2.6-0.9-5.1-2.8-6.8
	c-2-1.8-4.7-2.7-7.4-2.5c-3.2-0.1-6.3,1.1-8.5,3.5c-2.2,2.6-3.3,5.8-3.2,9.2v0.4c-0.2,3.4,1,6.7,3.2,9.3c2.2,2.3,5.3,3.5,8.4,3.4
	c1.8,0,3.6-0.4,5.2-1.1c1.5-0.8,2.8-2,3.7-3.4c0.9-1.4,1.4-3.1,1.4-4.8h-6.2c0,1.1-0.4,2.1-1.2,2.9c-0.8,0.7-1.9,1.1-3,1.1
	c-1.4,0.1-2.7-0.5-3.5-1.6c-0.8-1.1-1.1-2.9-1.1-5.4v-0.7C148,164.7,148.3,162.9,149.1,161.8z M179.9,165.4l8.9-10.4h-7.9l-6.5,7.5
	l-1.4,1.8V145h-6v35h6v-7.6l2.5-2.3l6.5,9.9h7.6L179.9,165.4z"/>
<path d="M162,2h60v23h-60V2z M180,70h42v11h-42V70z M139,25h23v90h-23V25z M180,48h42v11h-42V48z"/>
</svg>
