<svg xmlns="http://www.w3.org/2000/svg" viewBox="0 0 432 120"><polygon points="116.23 57 128.24 57 128.24 37 156.24 37 156.24 27 128.24 27 128.24 14 158.24 14 158.24 4 116.23 4 116.23 57"/><rect x="205.23" y="65" width="13" height="52"/><path d="M185.23,105.27c-1,2-3.25,3-6,3-3.25,0-5-1.67-5-5V78h-12v25.18c0,4.67,1.31,8.26,3.52,10.75s5.56,3.74,9.84,3.74a12.63,12.63,0,0,0,10.5-4.92l0.41,4.26h11.73V78h-13v27.27Z"/><path d="M147.91,90.09a11,11,0,0,0,5.53-4.26,12.53,12.53,0,0,0,1.88-7c0-4.72-1.77-8.49-5.29-11S141.34,64,134.57,64H116.23v53H137c6.41,0,11.25-1.39,14.51-4s4.9-6.48,4.9-11.63a11.8,11.8,0,0,0-2.2-7.23A11.1,11.1,0,0,0,147.91,90.09ZM128.23,74h6.34c2.84,0,4.9.53,6.18,1.51s1.92,2.6,1.92,4.82a6.25,6.25,0,0,1-1.77,4.76A9.12,9.12,0,0,1,135,87h-6.74V74Zm13.71,31.52c-1.23,1-3,1.48-5.28,1.48h-8.43V94h9c4.36,0,6.54,2.47,6.54,6.85A6,6,0,0,1,141.95,105.52Z"/><path d="M185.23,45.61c-1,2-3.25,3-6,3-3.25,0-5-1.67-5-5V18h-12V43.52c0,4.67,1.31,8.26,3.52,10.75S171.31,58,175.6,58a12.78,12.78,0,0,0,10.5-5.09L186.51,57h11.73V18h-13V45.61Z"/><rect x="44.23" y="50" width="42" height="11"/><path d="M267.3,49a5.85,5.85,0,0,1-3.74,1,7.61,7.61,0,0,1-4.44-1.63C258,47.51,257.36,47,257.31,44H245.92a10.76,10.76,0,0,0,2.2,6.92A15.37,15.37,0,0,0,254.27,56a21.29,21.29,0,0,0,9,1.9c5,0,9.14-1.07,12.31-3.31a10.2,10.2,0,0,0,4.75-8.69q0-7.84-8.82-10.87a44,44,0,0,0-6.13-1.55,15,15,0,0,1-5.08-1.66,3,3,0,0,1-1.59-2.64,3.3,3.3,0,0,1,1.3-2.66,5,5,0,0,1,3.22-1.16c3.3,0,5,1.6,5,4.6h12.22a10.55,10.55,0,0,0-4.7-9.12c-3.13-2.34-7.28-3.46-12.43-3.46-4.79,0-8.67,1.19-11.64,3.51a10.83,10.83,0,0,0-4.45,8.88,9.55,9.55,0,0,0,1.55,5.39,12.59,12.59,0,0,0,4.52,4,28.13,28.13,0,0,0,7.52,2.66,24.74,24.74,0,0,1,6.18,2,2.82,2.82,0,0,1,1.63,2.49A3.24,3.24,0,0,1,267.3,49Z"/><rect x="26.23" y="4" width="60" height="23"/><rect x="3.23" y="27" width="23" height="90"/><rect x="44.23" y="72" width="42" height="11"/><path d="M322.54,64.28a8,8,0,0,0-9.76,0,5.84,5.84,0,0,0,0,8.58,8,8,0,0,0,9.76,0A5.84,5.84,0,0,0,322.54,64.28Z"/><path d="M354.09,77.12a13.32,13.32,0,0,0-11.17,5.39L342.52,78H331.23v39h13V89.33a4.93,4.93,0,0,1,4.83-2.82c2.1,0,3.36.46,4.15,1.39s1,2.38,1,4.35V117h12V91.76c0-4.89-1.06-8.55-3.07-11S358.16,77.12,354.09,77.12Z"/><path d="M328,34c-6,0-10.53.79-13.66,3s-4.7,5.23-4.7,9.47a10.49,10.49,0,0,0,3.87,8.33,13.84,13.84,0,0,0,9.4,3.31,11.45,11.45,0,0,0,9.4-4.4A15.29,15.29,0,0,0,333.42,57h12.82V56.69a17.49,17.49,0,0,1-2-8.24V31.14a12.58,12.58,0,0,0-4.6-10c-2.89-2.43-6.9-3.65-11.89-3.65s-9.13,1.07-12.34,3.43S310.54,26,310.54,30h12.18c0-3,1.7-4.18,4.59-4.18,3.11,0,4.92,1.91,4.92,5.52V34H328Zm4.27,12.17c0,0.82-1.41,1.55-2.41,2.2a7.25,7.25,0,0,1-3.9,1,4.21,4.21,0,0,1-2.92-1,3.42,3.42,0,0,1-1.15-2.65c0-3.81,2.09-5.67,6.33-5.67h4.06v6.17Z"/><rect x="311.23" y="78" width="13" height="39"/><polygon points="412.71 34.03 426.41 18 411.81 18 402.55 29.52 401.24 31.25 401.24 4 389.24 4 389.24 57 401.24 57 401.24 46.17 404.75 42.59 413.36 57 427.31 57 412.71 34.03"/><path d="M367.1,26.87a5.47,5.47,0,0,1,4,2c1,1.08,1.48,2.08,1.48,5.08H384c0-6-1.49-9.06-4.48-11.88a17,17,0,0,0-12.11-4.44A18.77,18.77,0,0,0,357.63,20a15.69,15.69,0,0,0-6.26,6.92,23.58,23.58,0,0,0-2.14,10.41v0.51c0,6.31,1.59,11.25,4.87,14.82S361.84,58,367.52,58a17.22,17.22,0,0,0,11.86-4.3C382.45,51,384,48,384,43H372.56c0,3-.43,3.13-1.37,4.06a5.46,5.46,0,0,1-4,1.48,4.85,4.85,0,0,1-4.48-2.23c-0.94-1.52-1.41-4.22-1.41-8.15a42.21,42.21,0,0,1,.25-5.27C362.1,28.87,363.95,26.87,367.1,26.87Z"/><rect x="225.23" y="4" width="12" height="53"/><rect x="205.23" y="4" width="13" height="53"/><path d="M300.23,9h-12v9h-5v9h5V46.06c0,4,.88,7,2.88,9s5.08,3,9.27,3a26.74,26.74,0,0,0,6.85-1V48.27a19.37,19.37,0,0,1-3,.22c-1.57,0-2.59-.29-3.12-0.87a4.54,4.54,0,0,1-.85-3.07V27h7V18h-7V9Z"/><rect x="225.23" y="65" width="12" height="52"/><path d="M300.3,107.26a4.49,4.49,0,0,1-1.06-3.07V87h7V78h-7V68h-12V78h-4v9h4v18.71c0,4,1.18,7,3.18,9s5.43,3,9.62,3a29.27,29.27,0,0,0,7.2-1v-8.71a24.89,24.89,0,0,1-3.41.22C302.25,108.13,300.83,107.84,300.3,107.26Z"/><path d="M262.91,77.12a19.58,19.58,0,0,0-10.12,2.51,16.1,16.1,0,0,0-6.41,7.1,24,24,0,0,0-2.14,10.59v1c0,5.73,1.78,10.39,5.49,14s8.53,5.37,14.53,5.37a21.72,21.72,0,0,0,9-1.86,15.52,15.52,0,0,0,6.44-5l-5.57-6.58a11,11,0,0,1-9,4,8.56,8.56,0,0,1-5.71-2,9.72,9.72,0,0,1-2.86-5.28h24.76V96.49c0-6.1-1.86-10.85-5-14.26S268.4,77.12,262.91,77.12ZM269.23,93H256.47c0.67-4,2.8-6.78,6.36-6.78A6.56,6.56,0,0,1,267.52,88a6.73,6.73,0,0,1,1.72,4.69V93Z"/></svg>