<svg xmlns="http://www.w3.org/2000/svg" viewBox="0 0 432 120"><path d="M116.23,4h40v9h-29V26h27v9h-27V54h-11V4Zm65,39.2c-1,1.88-3.38,2.83-6,2.83-3.06,0-5-1.58-5-4.73V17h-11V41.23a14.91,14.91,0,0,0,3.48,10.13c2.08,2.35,5.32,3.52,9.36,3.52A12.08,12.08,0,0,0,182,50.11L182.43,54h10.8V17h-12V43.2Zm70.41-17.94a4.54,4.54,0,0,1,3-.84c3.11,0,4.66,1.59,4.66,4.59h11.51a10.11,10.11,0,0,0-4.43-8.84c-3-2.2-6.86-3.38-11.71-3.38-4.52,0-8.17,1.05-11,3.25a10.14,10.14,0,0,0-4.19,8.34A9,9,0,0,0,241,33.42a11.84,11.84,0,0,0,4.26,3.76,26.51,26.51,0,0,0,7.08,2.5,23.33,23.33,0,0,1,5.82,1.84,2.65,2.65,0,0,1,1.53,2.35,3.05,3.05,0,0,1-1.17,2.48,5.51,5.51,0,0,1-3.52,1,7.08,7.08,0,0,1-4.19-1.37c-1.09-.78-1.66-1.93-1.7-3.93H238.4a11.45,11.45,0,0,0,2.08,6.36,14.31,14.31,0,0,0,5.79,4.73,20,20,0,0,0,8.44,1.75c4.74,0,8.61-1,11.59-3.14a9.63,9.63,0,0,0,4.48-8.19q0-7.39-8.31-10.24a41.44,41.44,0,0,0-5.77-1.46,14.13,14.13,0,0,1-4.78-1.56,2.85,2.85,0,0,1-1.5-2.48A3.11,3.11,0,0,1,251.64,25.26Zm79.59,20.61a15.72,15.72,0,0,0,2,7.76V54H320.82a16,16,0,0,1-1.09-3.18,10.77,10.77,0,0,1-8.85,4.12A13,13,0,0,1,302,51.82,9.89,9.89,0,0,1,298.39,44a9.44,9.44,0,0,1,4.43-8.55c2.95-2,7.24-2.42,12.87-2.42h3.56V29.76c0-3.4-1.47-4.95-4.4-4.95-2.72,0-4.09,1.19-4.09,4.19H299.27a10,10,0,0,1,4.58-8.82,19.22,19.22,0,0,1,11.63-3.36c4.7,0,8.59,1.08,11.32,3.37a11.82,11.82,0,0,1,4.44,9.37V45.87Zm-12-7.87h-3.35c-4,0-6,1.71-6,5.3A3.18,3.18,0,0,0,311,45.77a4,4,0,0,0,2.75,1,6,6,0,0,0,3.44-.92c0.94-.61,2-1.31,2-2.08V38Zm76.28-5.77L408.41,17H394.66l-9,10.95-1.47,1.72V4h-11V54h11V43.73l3.54-3.34L396.12,54h13.14Zm-43-6.69c1.57,0,2.81,1.28,3.74,2.3s1.4,2.16,1.4,5.16h10.76c0-6-1.41-8.9-4.22-11.56a16.16,16.16,0,0,0-11.41-4.37,17.65,17.65,0,0,0-9.19,2.11A14.13,14.13,0,0,0,338,25.66c-1.37,2.85-1.76,6-1.76,9.76V35.9c0,5.95,1.24,10.6,4.33,14s7.16,5,12.51,5A16,16,0,0,0,364.18,51a12.8,12.8,0,0,0,4.26-10H357.69c0,3-.41,2.82-1.29,3.69A5.11,5.11,0,0,1,352.65,46a4.59,4.59,0,0,1-4.22-2.14q-1.33-2.14-1.33-7.69a39.91,39.91,0,0,1,.24-5Q348.09,25.54,352.55,25.55ZM219.23,54h11V4h-11V54Zm-19,0h13V4h-13V54Zm90-45h-12v8h-5v9h5V43.62c0,3.79.84,6.62,2.72,8.48s4.83,2.79,8.78,2.79a26.65,26.65,0,0,0,6.5-1V45.7a19.33,19.33,0,0,1-2.9.2c-1.48,0-2.12-.27-2.62-0.82s-0.49-1.51-.49-2.89V26h6V17h-6V9Z" opacity="0.7"/><path d="M44.23,50h42V61h-42V50Zm-18-23h60V4h-60V27Zm-23,90h23V27h-23v90Zm41-34h42V72h-42V83Zm156,34h13V68h-13v49Zm-19-11c-1,1.88-3.38,2.83-6,2.83-3.06,0-5-1.58-5-4.73V80h-11v24a14.91,14.91,0,0,0,3.48,10.13c2.08,2.35,5.32,3.52,9.36,3.52A12,12,0,0,0,182,113l0.43,4h10.8V80h-12v26ZM152,95.51a11.1,11.1,0,0,1,2.08,6.81q0,7.29-4.61,10.95c-3.08,2.44-7.63,3.73-13.67,3.73H116.23V67h17.28c6.38,0,11.23,1.38,14.55,3.72s5,5.94,5,10.39a11.8,11.8,0,0,1-1.77,6.57,10.32,10.32,0,0,1-5.21,4A10.45,10.45,0,0,1,152,95.51ZM127.23,89h6.65a8.58,8.58,0,0,0,5.58-1.84,6,6,0,0,0,1.67-4.54c0-2.09-.6-3.51-1.8-4.43S136.19,77,133.51,77h-6.28V89Zm15,12.74c0-4.13-2.05-6.74-6.16-6.74h-8.79v13h8.25a7.46,7.46,0,0,0,5-1.58A6.32,6.32,0,0,0,142.19,101.74ZM306,65.8a6.65,6.65,0,0,0-4.6,1.58,5.5,5.5,0,0,0,0,8.08,7.49,7.49,0,0,0,9.19,0,5.5,5.5,0,0,0,0-8.08A6.65,6.65,0,0,0,306,65.8Zm42.61,17.11c-1.9-2.29-4.59-3.44-8.42-3.44a12.31,12.31,0,0,0-10.46,4.93L329.39,80H318.23v37h13V91a4.54,4.54,0,0,1,4.44-2.66c2,0,3,.44,3.76,1.31s0.8,2.24.8,4.1V117h11V93.26C351.23,88.65,350.48,85.2,348.59,82.91ZM300.23,117h12V80h-12v37Zm-81,0h11V68h-11v49Zm70.69-9.14a4.33,4.33,0,0,1-.69-2.89V89h6V80h-6V71h-12v9h-4v9h4v17.4c0,3.79,1.15,6.62,3,8.48s5.18,2.79,9.12,2.79a29.19,29.19,0,0,0,6.84-1v-8.2a22.36,22.36,0,0,1-3.1.2A4.74,4.74,0,0,1,289.93,107.86ZM266.7,84.29c3,3.21,4.54,7.69,4.54,13.43V102h-22.9a8.71,8.71,0,0,0,2.69,5,8,8,0,0,0,5.37,1.86,10.3,10.3,0,0,0,8.5-3.81l5.23,6.2a14.74,14.74,0,0,1-6.1,4.71,20.79,20.79,0,0,1-8.51,1.75c-5.65,0-10.33-1.68-13.83-5.05a17.62,17.62,0,0,1-5.46-13.16v-1a22.68,22.68,0,0,1,2.31-10,15.8,15.8,0,0,1,6.32-6.69,18.45,18.45,0,0,1,9.53-2.37C259.57,79.47,263.7,81.08,266.7,84.29ZM248.34,94h11.89a6.54,6.54,0,0,0-1.55-4.41,6.08,6.08,0,0,0-4.35-1.76C251,87.83,249,90,248.34,94Z"/></svg>