<svg clip-rule="evenodd" fill-rule="evenodd" stroke-linejoin="round" stroke-miterlimit="2" width="145" height="43" viewBox="0 0 145 43" xmlns="http://www.w3.org/2000/svg">
  <g fill-rule="nonzero" transform="matrix(1.1259721575 0 0 1.1259721575 -843.78788275 .08857815)">
    <path d="m749.879 33.248c6.288 6.288 16.483 6.288 22.772 0 6.288-6.288 6.288-16.483 0-22.771l-2.847 2.846c4.716 4.716 4.716 12.363 0 17.079s-12.362 4.716-17.078 0z" fill="#fff" />
    <path d="m755.572 27.555c3.144 3.144 8.242 3.144 11.386 0s3.144-8.241 0-11.385l-2.847 2.846c1.572 1.572 1.572 4.121 0 5.693s-4.12 1.572-5.692 0z" fill="#fff" />
    <path d="m778.343 4.784c-6.288-6.288-16.483-6.288-22.771 0s-6.288 16.483 0 22.771l2.846-2.846c-4.716-4.716-4.716-12.363 0-17.079s12.363-4.716 17.079 0z" fill="#b9b9b9" />
    <g fill="#fff">
      <path d="m772.65 10.477c-3.144-3.144-8.241-3.144-11.385 0s-3.144 8.241 0 11.385l2.846-2.846c-1.572-1.572-1.572-4.121 0-5.693s4.121-1.572 5.693 0z" />
      <path d="m778.343 4.784c-6.288-6.288-16.483-6.288-22.771 0s-6.288 16.483 0 22.771l2.846-2.846c-4.716-4.716-4.716-12.363 0-17.079s12.363-4.716 17.079 0z" fill-opacity=".8" />
      <path d="m772.65 10.477c-3.144-3.144-8.241-3.144-11.385 0s-3.144 8.241 0 11.385l2.846-2.846c-1.572-1.572-1.572-4.121 0-5.693s4.121-1.572 5.693 0z" fill-opacity=".8" />
      <path d="m797.193 21.269c0 2.007-1.432 3.002-2.804 3.002-1.493 0-2.488-1.055-2.488-2.728v-7.908h-3.104v8.388c0 3.165 1.801 4.958 4.391 4.958 1.973 0 3.362-1.038 3.963-2.513h.137v2.341h3.01v-13.174h-3.105zm5.815 10.481h3.105v-7.016h.128c.489.96 1.51 2.307 3.774 2.307 3.105 0 5.429-2.462 5.429-6.802 0-4.391-2.393-6.775-5.437-6.775-2.325 0-3.294 1.398-3.766 2.35h-.18v-2.179h-3.053zm3.045-11.528c0-2.556 1.098-4.211 3.096-4.211 2.067 0 3.131 1.758 3.131 4.211 0 2.47-1.081 4.272-3.131 4.272-1.981 0-3.096-1.716-3.096-4.272zm21.98-3.105c-.429-2.23-2.213-3.653-5.301-3.653-3.173 0-5.335 1.561-5.326 3.997-.009 1.921 1.175 3.19 3.705 3.713l2.247.472c1.209.266 1.776.755 1.776 1.501 0 .901-.978 1.578-2.453 1.578-1.424 0-2.35-.617-2.616-1.801l-3.028.292c.386 2.418 2.419 3.851 5.652 3.851 3.294 0 5.618-1.707 5.627-4.203-.009-1.878-1.218-3.028-3.706-3.568l-2.247-.48c-1.338-.3-1.87-.764-1.861-1.527-.009-.892.978-1.51 2.273-1.51 1.432 0 2.187.781 2.427 1.647zm8.938-3.482h-2.598v-3.156h-3.105v3.156h-1.87v2.402h1.87v7.324c-.017 2.479 1.784 3.697 4.117 3.628.883-.025 1.492-.197 1.827-.308l-.524-2.428c-.171.043-.523.12-.909.12-.781 0-1.406-.274-1.406-1.526v-6.81h2.598zm5.905 13.44c2.067 0 3.302-.969 3.868-2.075h.103v1.809h2.985v-8.817c0-3.482-2.839-4.528-5.352-4.528-2.77 0-4.897 1.235-5.584 3.636l2.899.412c.309-.901 1.183-1.673 2.702-1.673 1.441 0 2.23.738 2.23 2.033v.052c0 .892-.935.935-3.259 1.183-2.556.275-5.001 1.038-5.001 4.006 0 2.59 1.896 3.962 4.409 3.962zm.806-2.281c-1.295 0-2.221-.592-2.221-1.733 0-1.192 1.038-1.689 2.427-1.887.815-.111 2.444-.317 2.848-.643v1.552c0 1.467-1.185 2.711-3.054 2.711zm19.201-7.677c-.429-2.23-2.213-3.653-5.3-3.653-3.174 0-5.336 1.561-5.327 3.997-.009 1.921 1.176 3.19 3.705 3.713l2.248.472c1.209.266 1.775.755 1.775 1.501 0 .901-.978 1.578-2.453 1.578-1.424 0-2.35-.617-2.616-1.801l-3.028.292c.386 2.418 2.419 3.851 5.653 3.851 3.293 0 5.618-1.707 5.626-4.203-.008-1.878-1.218-3.028-3.705-3.568l-2.247-.48c-1.338-.3-1.87-.764-1.861-1.527-.009-.892.977-1.51 2.272-1.51 1.433 0 2.188.781 2.428 1.647zm5.465 1.973c0-1.904 1.184-3.002 2.848-3.002 1.629 0 2.59 1.038 2.59 2.813v7.908h3.105v-8.388c0-3.182-1.802-4.957-4.538-4.957-2.024 0-3.31.917-3.919 2.41h-.154v-6.63h-3.037v17.565h3.105z" />
    </g>
  </g>
</svg>