<svg width="160" height="43" viewBox="0 0 160 43" fill="none" xmlns="http://www.w3.org/2000/svg">
<path fill-rule="evenodd" clip-rule="evenodd" d="M72.2154 27.6794C72.2732 29.5519 72.886 31.0202 74.0539 32.0845L74.05 32.0942C75.2808 33.2104 76.9806 33.7685 79.1496 33.7685C80.3221 33.7924 81.4861 33.5611 82.5627 33.0902C83.4882 32.6828 84.2772 32.0126 84.8343 31.1606C85.3851 30.2891 85.6666 29.2712 85.6429 28.2369C85.6557 27.0284 85.3701 26.0057 84.7862 25.1689C84.2022 24.3321 83.3039 23.6759 82.0911 23.2003L79.1573 22.0308C78.282 21.6721 77.6595 21.3187 77.2899 20.9705C77.1131 20.8122 76.972 20.6174 76.876 20.3992C76.78 20.1809 76.7315 19.9443 76.7336 19.7055C76.7239 19.4597 76.7711 19.2151 76.8714 18.991C76.9716 18.767 77.1222 18.5698 77.3111 18.4151C77.6884 18.0994 78.2056 17.9415 78.8627 17.9415C79.6546 17.9428 80.2603 18.1643 80.68 18.6062C81.0573 19.0025 81.2659 19.5554 81.3056 20.2649C81.3091 20.3348 81.339 20.4008 81.3892 20.4491C81.4394 20.4973 81.506 20.5242 81.5752 20.5241H85.1366C85.2091 20.5201 85.2771 20.4874 85.3261 20.4331C85.375 20.3788 85.401 20.3072 85.3984 20.2337C85.3784 19.2379 85.078 18.2685 84.5323 17.4398C83.9866 16.611 83.2184 15.9574 82.3182 15.5557C81.2562 15.0683 80.0998 14.8279 78.9339 14.8521C77.7944 14.8281 76.6629 15.0507 75.6151 15.5051C74.7217 15.889 73.9584 16.5284 73.4186 17.345C72.8978 18.1633 72.6297 19.1201 72.6486 20.0933C72.6183 21.1602 72.9371 22.2072 73.5553 23.0716C74.161 23.8994 75.053 24.5341 76.2311 24.976L79.4133 26.2292C80.2205 26.545 80.7801 26.8699 81.092 27.2038C81.4125 27.563 81.5799 28.0359 81.5578 28.5195C81.5734 28.7941 81.5256 29.0686 81.4184 29.3213C81.3111 29.5739 81.1473 29.7979 80.9399 29.9755C80.5279 30.3172 79.9433 30.4881 79.1861 30.4881C78.2942 30.4894 77.5915 30.2159 77.0782 29.6675C76.6072 29.1725 76.3505 28.5007 76.3081 27.6521C76.3042 27.5823 76.2742 27.5166 76.2241 27.4685C76.174 27.4203 76.1077 27.3933 76.0386 27.3929H72.4791C72.4068 27.3959 72.3386 27.4277 72.2892 27.4813C72.2398 27.535 72.2133 27.6061 72.2154 27.6794ZM41.1298 15.4335C41.0789 15.4851 41.0503 15.555 41.0503 15.6278V32.9772C41.0508 33.0499 41.0796 33.1195 41.1304 33.171C41.1812 33.2224 41.2499 33.2515 41.3217 33.252H47.7188C49.5527 33.252 51.1518 32.8505 52.5161 32.0474C53.8408 31.2853 54.9259 30.1596 55.6462 28.8002C56.3596 27.4127 56.732 25.8716 56.732 24.3074C56.732 22.7432 56.3596 21.2021 55.6462 19.8146C54.9213 18.4586 53.8373 17.3341 52.5161 16.5673C51.1505 15.7578 49.5514 15.353 47.7188 15.353H41.3217C41.2497 15.353 41.1807 15.382 41.1298 15.4335ZM50.1732 29.0165C49.318 29.539 48.3322 29.8009 47.3338 29.7708L45.4087 29.7669C45.3367 29.7669 45.2676 29.738 45.2167 29.6864C45.1658 29.6349 45.1372 29.565 45.1372 29.4921V19.0993C45.1372 19.0264 45.1658 18.9565 45.2167 18.9049C45.2676 18.8534 45.3367 18.8244 45.4087 18.8244H47.3338C48.3322 18.7944 49.318 19.0563 50.1732 19.5788C50.9386 20.062 51.5486 20.7602 51.9289 21.5883C52.3114 22.4391 52.5093 23.3629 52.5093 24.2976C52.5093 25.2324 52.3114 26.1562 51.9289 27.007C51.5493 27.8355 50.9391 28.5339 50.1732 29.0165ZM103.852 15.3511H107.396C107.468 15.3511 107.537 15.38 107.588 15.4316C107.639 15.4831 107.668 15.553 107.668 15.6259V29.2972C107.668 29.3701 107.696 29.44 107.747 29.4915C107.798 29.5431 107.867 29.572 107.939 29.572H113.963C114.034 29.5725 114.103 29.6017 114.153 29.6532C114.204 29.7047 114.232 29.7743 114.232 29.8469V32.9811C114.232 33.0535 114.204 33.1229 114.153 33.174C114.103 33.2252 114.034 33.254 113.963 33.254H103.846C103.775 33.254 103.706 33.2253 103.655 33.1742C103.604 33.123 103.575 33.0536 103.575 32.9811V15.6337C103.575 15.5976 103.582 15.5619 103.596 15.5285C103.609 15.4952 103.629 15.4649 103.654 15.4394C103.68 15.4138 103.71 15.3936 103.743 15.3798C103.775 15.366 103.811 15.3589 103.846 15.3589L103.852 15.3511ZM136.996 15.355H133.239C133.167 15.355 133.098 15.3837 133.047 15.4348C132.996 15.4859 132.968 15.5553 132.967 15.6279V32.9752C132.967 33.0113 132.974 33.0471 132.988 33.0804C133.001 33.1138 133.021 33.144 133.047 33.1696C133.072 33.1951 133.102 33.2153 133.135 33.2291C133.168 33.243 133.203 33.2501 133.239 33.2501H136.609C136.681 33.2501 136.75 33.2211 136.801 33.1696C136.852 33.118 136.881 33.0481 136.881 32.9752V22.7617C136.881 22.7006 136.901 22.6412 136.938 22.593C136.975 22.5448 137.027 22.5105 137.086 22.4955C137.144 22.4805 137.206 22.4857 137.261 22.5103C137.317 22.5349 137.362 22.5774 137.391 22.6311L142.939 33.1039C142.962 33.1476 142.997 33.1842 143.039 33.2099C143.081 33.2356 143.129 33.2494 143.178 33.2501H146.935C147.007 33.2501 147.077 33.2211 147.127 33.1696C147.178 33.118 147.207 33.0481 147.207 32.9752V15.6279C147.207 15.5919 147.2 15.5562 147.186 15.523C147.173 15.4897 147.153 15.4596 147.127 15.4342C147.102 15.4088 147.072 15.3888 147.039 15.3752C147.006 15.3616 146.971 15.3547 146.935 15.355H143.565C143.493 15.355 143.424 15.3837 143.373 15.4348C143.323 15.4859 143.294 15.5553 143.293 15.6279V25.8414C143.293 25.9025 143.273 25.9619 143.236 26.0101C143.199 26.0583 143.147 26.0926 143.088 26.1076C143.03 26.1226 142.968 26.1174 142.913 26.0928C142.857 26.0682 142.812 26.0257 142.783 25.972L137.235 15.4992C137.212 15.4555 137.177 15.4189 137.135 15.3935C137.093 15.3681 137.045 15.3548 136.996 15.355ZM149.253 15.355H159.516C159.551 15.3547 159.587 15.3616 159.62 15.3752C159.653 15.3888 159.682 15.4088 159.708 15.4342C159.733 15.4596 159.753 15.4897 159.767 15.523C159.78 15.5562 159.787 15.5919 159.787 15.6279V18.4034C159.787 18.476 159.758 18.5454 159.707 18.5965C159.656 18.6476 159.588 18.6763 159.516 18.6763H153.342C153.27 18.6763 153.201 18.7053 153.15 18.7568C153.099 18.8083 153.071 18.8783 153.071 18.9511V22.4596C153.071 22.5321 153.1 22.6016 153.151 22.6527C153.202 22.7038 153.271 22.7325 153.342 22.7325H159.516C159.588 22.7325 159.657 22.7614 159.708 22.813C159.759 22.8645 159.787 22.9344 159.787 23.0073V25.7049C159.787 25.7778 159.759 25.8477 159.708 25.8993C159.657 25.9508 159.588 25.9798 159.516 25.9798H153.342C153.27 25.9798 153.201 26.0087 153.15 26.0603C153.099 26.1118 153.071 26.1817 153.071 26.2546V29.6422C153.071 29.7151 153.099 29.785 153.15 29.8365C153.201 29.8881 153.27 29.917 153.342 29.917H159.516C159.588 29.917 159.656 29.9457 159.707 29.9968C159.758 30.0479 159.787 30.1174 159.787 30.1899V32.9655C159.787 33.0384 159.759 33.1083 159.708 33.1598C159.657 33.2114 159.588 33.2403 159.516 33.2403H149.253C149.181 33.2403 149.112 33.2114 149.061 33.1598C149.01 33.1083 148.982 33.0384 148.982 32.9655V15.6181C148.982 15.5457 149.01 15.4763 149.061 15.4252C149.111 15.374 149.18 15.3452 149.251 15.3452L149.253 15.355ZM66.1014 15.4875L71.9748 32.9791V32.9752C71.9786 32.9965 71.9786 33.0183 71.9748 33.0395C71.9748 33.0912 71.9545 33.1408 71.9184 33.1774C71.8823 33.2139 71.8333 33.2345 71.7823 33.2345H67.9437C67.8853 33.2351 67.8283 33.2165 67.7813 33.1813C67.7344 33.1461 67.7002 33.0963 67.6838 33.0395L66.9445 30.3887H61.0615L60.3223 33.0395C60.3056 33.0961 60.2713 33.1457 60.2244 33.1809C60.1775 33.216 60.1207 33.2348 60.0624 33.2345H56.2276C56.2059 33.2374 56.1839 33.2374 56.1622 33.2345C56.1369 33.2268 56.1134 33.214 56.0932 33.1968C56.073 33.1795 56.0565 33.1583 56.0448 33.1343C56.0331 33.1104 56.0263 33.0842 56.025 33.0575C56.0236 33.0308 56.0278 33.0042 56.037 32.9791L61.8874 15.4875C61.9001 15.4464 61.9258 15.4108 61.9607 15.3861C61.9955 15.3614 62.0374 15.3491 62.0799 15.3511H65.9088C65.9513 15.3491 65.9932 15.3614 66.028 15.3861C66.0629 15.4108 66.0886 15.4464 66.1014 15.4875ZM63.8182 20.5611L62.0722 26.8101L62.0587 26.8003C62.0557 26.8243 62.0557 26.8485 62.0587 26.8725C62.0587 26.9428 62.0863 27.0102 62.1354 27.0599C62.1845 27.1096 62.2511 27.1375 62.3205 27.1375H65.6971C65.7207 27.1413 65.7447 27.1413 65.7683 27.1375C65.8015 27.1281 65.8324 27.1121 65.8595 27.0906C65.8865 27.069 65.9091 27.0422 65.9259 27.0118C65.9427 26.9814 65.9534 26.9479 65.9574 26.9133C65.9614 26.8787 65.9587 26.8436 65.9493 26.8101L64.2032 20.5611C64.2032 20.5094 64.1829 20.4599 64.1468 20.4233C64.1107 20.3868 64.0618 20.3662 64.0107 20.3662C63.9597 20.3662 63.9107 20.3868 63.8746 20.4233C63.8385 20.4599 63.8182 20.5094 63.8182 20.5611ZM131.392 32.9791L125.521 15.4875C125.508 15.4464 125.482 15.4108 125.448 15.3861C125.413 15.3614 125.371 15.3491 125.328 15.3511H121.497C121.455 15.3491 121.413 15.3614 121.378 15.3861C121.343 15.4108 121.318 15.4464 121.305 15.4875L115.457 32.9791C115.447 33.0042 115.443 33.0308 115.445 33.0575C115.446 33.0842 115.453 33.1104 115.464 33.1343C115.476 33.1583 115.493 33.1795 115.513 33.1968C115.533 33.214 115.556 33.2268 115.582 33.2345C115.603 33.2373 115.624 33.2373 115.645 33.2345H119.48C119.538 33.2351 119.595 33.2165 119.642 33.1813C119.689 33.1461 119.724 33.0963 119.74 33.0396L120.481 30.3887H126.362L127.103 33.0396C127.12 33.0963 127.154 33.1461 127.201 33.1813C127.248 33.2165 127.305 33.2351 127.363 33.2345H131.198C131.249 33.2345 131.298 33.2139 131.334 33.1774C131.37 33.1408 131.39 33.0912 131.39 33.0396C131.393 33.0182 131.393 32.9966 131.39 32.9752L131.392 32.9791ZM121.488 26.8062L123.234 20.5572C123.24 20.5312 123.252 20.5069 123.268 20.4856C123.284 20.4644 123.304 20.4467 123.327 20.4337C123.35 20.4208 123.376 20.4127 123.402 20.4102C123.429 20.4076 123.455 20.4106 123.48 20.4188C123.513 20.4285 123.542 20.4463 123.566 20.4704C123.59 20.4946 123.607 20.5244 123.617 20.5572L125.363 26.8062C125.382 26.8742 125.374 26.947 125.34 27.0087C125.306 27.0705 125.249 27.1161 125.182 27.1356C125.159 27.1417 125.135 27.145 125.111 27.1453H121.74C121.671 27.1448 121.604 27.1168 121.555 27.0673C121.505 27.0177 121.477 26.9506 121.476 26.8802C121.476 26.8551 121.48 26.8301 121.488 26.8062ZM97.896 15.355H101.444V15.353C101.516 15.353 101.584 15.3817 101.635 15.4328C101.686 15.484 101.715 15.5534 101.715 15.6259V32.9733C101.715 33.0462 101.687 33.1161 101.636 33.1676C101.585 33.2192 101.516 33.2481 101.444 33.2481H97.896C97.824 33.2481 97.755 33.2192 97.7041 33.1676C97.6532 33.1161 97.6246 33.0462 97.6246 32.9733V26.4164C97.6246 26.3435 97.596 26.2736 97.5451 26.222C97.4942 26.1705 97.4251 26.1415 97.3531 26.1415H91.7877C91.7157 26.1415 91.6467 26.1705 91.5958 26.222C91.5449 26.2736 91.5163 26.3435 91.5163 26.4164V32.9733C91.5158 33.0458 91.487 33.1152 91.4361 33.1664C91.3853 33.2175 91.3165 33.2462 91.2448 33.2462H87.6969C87.6253 33.2462 87.5565 33.2175 87.5057 33.1664C87.4548 33.1152 87.426 33.0458 87.4255 32.9733V15.6259C87.4255 15.553 87.4541 15.4831 87.505 15.4316C87.5559 15.38 87.6249 15.3511 87.6969 15.3511H91.2448C91.316 15.3516 91.3842 15.3801 91.4349 15.4307C91.4856 15.4813 91.5148 15.55 91.5163 15.622V22.3134C91.5163 22.3863 91.5449 22.4562 91.5958 22.5077C91.6467 22.5593 91.7157 22.5882 91.7877 22.5882H97.3531C97.3888 22.5882 97.4241 22.5811 97.457 22.5673C97.4899 22.5535 97.5199 22.5333 97.5451 22.5077C97.5703 22.4822 97.5903 22.4519 97.6039 22.4186C97.6175 22.3852 97.6246 22.3495 97.6246 22.3134V15.6279C97.6251 15.5553 97.6539 15.4859 97.7047 15.4348C97.7556 15.3837 97.8243 15.355 97.896 15.355Z" fill="#fff"/>
<path d="M31.2185 13.8891C31.2185 13.6246 30.9573 13.3601 30.5908 13.2542L26.1978 11.6149C25.4663 11.2975 24.6295 11.6678 24.6295 12.1976V30.8332C24.6295 31.0977 24.8908 31.4152 25.1521 31.521L29.6495 33.1603C30.3295 33.4249 31.2185 33.0545 31.2185 32.4718V13.8891ZM23.0082 7.3772C23.0082 7.11192 22.7469 6.84739 22.3804 6.74158L17.9883 5.10224C17.256 4.7848 16.4192 5.15514 16.4192 5.68495V17.0136C16.4192 17.2781 16.6805 17.5955 16.9417 17.7021L21.4392 19.3414C22.1192 19.6067 23.0082 19.2356 23.0082 18.6536V7.3772ZM23.0082 27.7617C23.0082 27.4972 22.7469 27.2326 22.3804 27.1268L17.9883 25.4875C17.256 25.17 16.4192 25.5404 16.4192 26.0702V37.3988C16.4192 37.6633 16.6805 37.9808 16.9417 38.0866L21.4392 39.7259C22.1192 39.9912 23.0082 39.6201 23.0082 39.0374V27.7617ZM14.7979 30.0389C14.7979 29.7744 14.5366 29.5091 14.1701 29.4033L9.77792 27.7639C9.04197 27.4465 8.20886 27.8168 8.20886 28.3466V40.4182C8.20886 40.6827 8.47013 41.0009 8.73139 41.1067L13.2288 42.746C13.9088 43.0113 14.7979 42.6402 14.7979 42.0582V30.0389ZM14.7979 2.55827C14.7979 2.29374 14.5366 2.02921 14.1701 1.9234L9.77792 0.284058C9.04197 -0.0333784 8.20886 0.336964 8.20886 0.866769V12.9383C8.20886 13.2036 8.47013 13.521 8.73139 13.6268L13.2288 15.2662C13.9088 15.5307 14.7979 15.1604 14.7979 14.5776V2.55827ZM6.58902 3.03517C6.58902 2.77064 6.32775 2.50537 5.96125 2.39956L1.56906 0.760213C0.836783 0.442776 0 0.813119 0 1.34293V39.9934C0 40.258 0.261268 40.5754 0.523269 40.6812L5.01996 42.3205C5.69999 42.5851 6.58902 42.2147 6.58902 41.632V3.03517Z" fill="white"/>
</svg>
