<?xml version="1.0" encoding="utf-8"?>
<svg xmlns="http://www.w3.org/2000/svg">
<symbol id="email" viewBox="0 0 100 100">
  <rect x="55" y="45" width="11" height="10"/><rect x="34" y="45" width="11" height="10"/><rect x="45" y="55" width="10" height="11"/><rect x="66" y="34" width="11" height="11"/>
  <path d="M88.11,12H1V88H99V12H88.11ZM88,44.56V77H12V34H23V23H77V34H88V44.56Z"/><rect x="23" y="34" width="11" height="11"/>

</symbol>
<symbol id="facebook" viewBox="0 0 51 100">
  <path fill="inherit" fill-rule="nonzero" d="M50.526 16.667h-8.964c-7.334 0-8.964 3.333-8.964 8.333v11.667H49.71l-2.443 17.5h-14.67V100H14.67V54.167H0v-17.5h14.67V23.333C14.67 8.333 23.632 0 37.486 0c6.52 0 12.224.833 13.04.833v15.834z"/>

</symbol>
<symbol id="linkedin" viewBox="0 0 98 99">
  <path fill="inherit" fill-rule="nonzero" d="M97.78 97.732H77.455V66.024c0-7.317 0-17.073-10.57-17.073-10.568 0-12.194 8.13-12.194 17.074v32.52H34.367v-65.04h19.512v8.943c2.44-4.878 8.943-10.57 19.512-10.57 20.325 0 24.39 13.822 24.39 30.895v34.96zM11.602 23.748C5.098 23.748.22 18.058.22 12.366.22 5.862 5.098.17 11.602.17s11.382 4.88 11.382 11.383c.813 6.504-4.878 12.195-11.382 12.195zm10.57 73.984H1.845v-65.04H22.17v65.04z"/>

</symbol>
<symbol id="twitter" viewBox="0 0 100 85">
  <path fill="inherit" fill-rule="nonzero" d="M100 10.498c-3.75 1.718-7.708 2.792-11.875 3.437 4.167-2.578 7.5-6.658 8.958-11.598C93.125 4.7 88.75 6.417 83.958 7.49c-3.75-4.08-9.166-6.657-15-6.657-11.25 0-20.416 9.45-20.416 21.048 0 1.72.208 3.223.625 4.727-16.875-.86-32.084-9.236-42.292-22.122-1.667 3.22-2.708 6.658-2.708 10.524 0 7.3 3.54 13.744 9.166 17.61-3.333-.215-6.458-1.074-9.375-2.577v.215c0 10.31 7.084 18.9 16.46 20.833-1.668.43-3.543.645-5.418.645-1.25 0-2.708-.214-3.958-.43 2.708 8.377 10.208 14.606 19.166 14.606-7.083 5.585-15.833 9.02-25.416 9.02-1.667 0-3.334 0-4.792-.214 9.167 6.014 19.792 9.45 31.458 9.45 37.71 0 58.334-32.216 58.334-60.137v-2.793c3.958-2.792 7.5-6.443 10.208-10.74z"/>

</symbol></svg>