<svg id="Layer_1" data-name="Layer 1" xmlns="http://www.w3.org/2000/svg" viewBox="0 0 100 100"><title>images-resources</title><path d="M95.5,22.7V83.37H50V22.7a49.36,49.36,0,0,1,22.75-6.07A49.34,49.34,0,0,1,95.5,22.7Z" fill="none" stroke="#848481" stroke-miterlimit="10" stroke-width="3.99"/><path d="M50,77.3a49.36,49.36,0,0,1,22.75-6.07A49.37,49.37,0,0,1,95.5,77.3" fill="none" stroke="#848481" stroke-miterlimit="10" stroke-width="3.99"/><path d="M50,22.7V83.37H4.5V22.7a49.36,49.36,0,0,1,22.75-6.07A49.34,49.34,0,0,1,50,22.7Z" fill="none" stroke="#848481" stroke-miterlimit="10" stroke-width="3.99"/><path d="M4.5,77.3a49.36,49.36,0,0,1,22.75-6.07A49.37,49.37,0,0,1,50,77.3" fill="none" stroke="#848481" stroke-miterlimit="10" stroke-width="3.99"/></svg>