<svg id="Layer_1" data-name="Layer 1" xmlns="http://www.w3.org/2000/svg" viewBox="0 0 100 100"><title>images-resources</title><path d="M30.92,20.65H95.5M30.92,79.35H95.5m-83.66-66h0A7.34,7.34,0,0,0,4.5,20.65h0A7.34,7.34,0,0,0,11.84,28h0a7.34,7.34,0,0,0,7.34-7.34h0A7.34,7.34,0,0,0,11.84,13.31Zm0,58.71h0A7.34,7.34,0,0,0,4.5,79.35h0a7.34,7.34,0,0,0,7.34,7.34h0a7.34,7.34,0,0,0,7.34-7.34h0A7.34,7.34,0,0,0,11.84,72Z" fill="none" stroke="#848481" stroke-miterlimit="10" stroke-width="3.99"/><line x1="30.92" y1="50" x2="95.5" y2="50" fill="none" stroke="#848481" stroke-miterlimit="10" stroke-width="3.99"/><path d="M11.84,42.66h0A7.34,7.34,0,0,0,4.5,50h0a7.34,7.34,0,0,0,7.34,7.34h0A7.34,7.34,0,0,0,19.18,50h0A7.34,7.34,0,0,0,11.84,42.66Z" fill="none" stroke="#848481" stroke-miterlimit="10" stroke-width="3.99"/></svg>