<svg clip-rule="evenodd" fill-rule="evenodd" stroke-linejoin="round" stroke-miterlimit="2"
  viewBox="0 0 1890 508" height="43" xmlns="http://www.w3.org/2000/svg">
  <g fill="#ececec" fill-rule="nonzero"
    transform="matrix(1.89659865733 0 0 1.25213935886 64.73667152922 122.08980762758)">
    <path
      d="m17.767 230.842c-1.316 0-3.356-.299-6.12-.897-2.105-3.389-3.981-8.023-5.626-13.904s-2.895-12.16-3.751-18.838c-.855-6.678-1.25-13.356-1.184-20.035.066-6.678.822-12.608 2.27-17.791 0-.199.625-2.592 1.875-7.177 1.251-4.585 2.863-10.415 4.837-17.492s4.212-14.951 6.712-23.623c2.501-8.671 5.001-17.193 7.502-25.566 2.5-8.372 4.902-15.997 7.205-22.875 2.303-6.877 4.31-12.21 6.021-15.997 1.185-2.791 2.271-5.482 3.258-8.074.987-2.591 1.941-4.983 2.862-7.176 1.448-3.588 2.797-6.927 4.047-10.017s2.632-5.881 4.146-8.373c1.513-2.492 3.191-4.684 5.034-6.578 1.842-1.894 4.08-3.538 6.712-4.934 1.579.997 2.961 2.043 4.146 3.14 1.184 1.096 2.237 2.442 3.158 4.037l.592 4.186c.264 1.395.691 2.342 1.284 2.84.592.499 1.085.748 1.48.748 1.711.598 3.192 1.246 4.442 1.944 1.25.697 2.599 1.146 4.047 1.345.526 1.196 1.02 2.392 1.48 3.588.461 1.197.955 2.293 1.481 3.29 2.632 5.781 4.804 11.362 6.515 16.745 1.711 5.382 1.711 11.263 0 17.642l.197 3.289c.658 1.395.987 2.691.987 3.887s-.131 2.891-.395 5.084c-.131 1.594-.23 3.339-.296 5.232-.066 1.894.099 3.937.494 6.13l1.382 2.392c2.105 1.595 4.145 2.393 6.119 2.393 2.633 0 5.002-.898 7.107-2.692 2.106-1.794 4.08-3.588 5.923-5.382 1.447-1.595 2.796-2.89 4.047-3.887 1.25-.997 2.467-1.695 3.652-2.093 2.764-3.987 5.297-7.526 7.6-10.615 2.303-3.09 4.705-6.23 7.206-9.42 4.738-5.781 9.344-12.01 13.819-18.688 4.474-6.678 8.028-15.001 10.66-24.968 1.448-1.396 3.093-2.093 4.935-2.093 1.843 0 3.685.548 5.528 1.644 1.842 1.097 3.685 2.343 5.527 3.738.395.399.757.698 1.086.897s.691.498 1.086.897c0 2.193.592 4.186 1.777 5.98.658.798 1.118 1.296 1.381 1.495.264.2.527.399.79.599 1.053.996 1.941 1.893 2.665 2.691.724.797 1.283 1.893 1.678 3.289 1.185 5.382 3.159 9.568 5.923 12.559-.264 2.192-.198 4.335.197 6.429.395 2.093.855 4.136 1.382 6.129.263.798.46 1.545.592 2.243s.329 1.545.592 2.542l-4.343-.598.592 6.578c.395 3.389.231 7.177-.493 11.363s-1.546 7.475-2.468 9.867c.264 5.981.395 10.715.395 14.204 0 3.488-.131 6.728-.395 9.718-.263 2.99-.691 5.831-1.283 8.522s-1.349 5.532-2.27 8.522c.526 15.15-.625 29.005-3.455 41.564-2.829 12.558-5.889 24.32-9.18 35.284-.394 1.395-.789 2.691-1.184 3.887s-.724 2.392-.987 3.588c-1.448.598-2.764 1.296-3.948 2.093-1.185.798-2.303 1.695-3.356 2.691-1.448 1.396-2.896 2.542-4.343 3.439-1.448.897-2.962 1.346-4.541 1.346-6.317-6.977-9.574-19.038-9.772-36.181-.197-17.144 2.205-38.973 7.206-65.486.921-.996 1.316-2.491 1.184-4.485v-3.289l-1.974-.299c-.658 0-1.25.1-1.777.299-.526.199-.921 1.096-1.184 2.691-4.212 4.585-8.785 9.32-13.72 14.204-4.936 4.884-10.035 9.369-15.3 13.455-5.264 4.087-10.627 7.476-16.089 10.167s-10.759 4.037-15.892 4.037c-13.16 0-23.097-10.167-29.809-30.5l-1.777-5.382-1.974 4.784c-.395.997-1.086 2.94-2.073 5.831-.987 2.89-1.974 6.229-2.961 10.017-.987 3.787-1.842 7.675-2.566 11.662-.724 3.986-.954 7.475-.691 10.465-1.579 2.193-3.126 4.685-4.639 7.476-1.514 2.79-2.6 5.98-3.258 9.568-.263.997-.329 1.944-.197 2.841s.329 1.844.592 2.841c-.131 1.395-.395 2.392-.789 2.99-.395.598-.856 1.196-1.382 1.794-.658.997-1.316 2.043-1.974 3.14-.658 1.096-1.251 2.342-1.777 3.737-.263 1.196-.461 2.442-.592 3.738-.132 1.296-.264 2.442-.395 3.439 0 2.193-.198 3.688-.592 4.485-1.317 4.186-2.468 7.625-3.455 10.316s-1.941 4.735-2.863 6.13c-.921 1.395-1.875 2.342-2.862 2.841-.987.498-2.139.747-3.455.747z" />
    <path
      d="m238.672 205.725c.658 5.98.428 10.665-.691 14.054-1.119 3.388-2.698 5.93-4.738 7.625-2.04 1.694-4.376 2.641-7.008 2.84-2.632.2-5.133 0-7.502-.598-1.316-2.791-2.5-6.279-3.553-10.465-1.053-4.187-2.04-8.522-2.961-13.008-.922-4.485-1.744-8.92-2.468-13.306s-1.349-8.273-1.875-11.662c.658-2.392 1.085-5.133 1.283-8.223.197-3.09.329-6.229.395-9.419.065-3.189.131-6.429.197-9.718s.23-6.429.493-9.419c.922-8.373 2.271-16.346 4.047-23.922 1.777-7.575 3.192-15.449 4.245-23.622.263-1.794.164-3.489-.296-5.083-.461-1.595-.56-3.09-.296-4.486.131-.797.526-1.345 1.184-1.644s1.053-.947 1.184-1.944c.395-2.193.494-3.987.297-5.382-.198-1.396.033-3.09.691-5.083.658-1.595 1.48-3.938 2.467-7.027.987-3.09 1.349-6.33 1.086-9.719 1.184-1.196 2.303-2.591 3.356-4.186s2.139-3.04 3.257-4.336c1.119-1.295 2.369-2.442 3.751-3.438 1.382-.997 3.06-1.495 5.034-1.495 1.053 1.993 1.744 4.186 2.073 6.578s.658 4.784.987 7.177c.329 2.392.823 4.634 1.481 6.727.658 2.094 1.776 3.738 3.356 4.934v5.981c0 2.392.065 4.734.197 7.027.132 2.292.428 4.385.888 6.279.461 1.894 1.218 3.14 2.271 3.738-2.369 9.568-4.574 19.037-6.614 28.406-2.04 9.37-3.718 18.789-5.034 28.258s-2.138 18.987-2.467 28.556.098 19.237 1.283 29.005z" />
    <path
      d="m264.73 92.098c.922-4.187 2.402-7.775 4.442-10.765s4.277-5.532 6.712-7.625 4.968-3.837 7.601-5.233c2.632-1.395 5.132-2.591 7.501-3.588 5.265-3.389 10.891-6.628 16.879-9.718s12.108-5.831 18.359-8.223c6.252-2.392 12.668-3.937 19.248-4.635 6.581-.698 13.49.548 20.728 3.738.395 1.993.987 3.887 1.777 5.681s1.612 3.588 2.468 5.383c.855 1.794 1.612 3.538 2.27 5.232.658 1.695 1.053 3.439 1.185 5.233 1.316 1.794 2.368 3.738 3.158 5.831s.921 4.834.395 8.223c-1.316 1.595-2.599 3.04-3.85 4.336-1.25 1.296-2.599 2.442-4.047 3.439-4.869-1.795-9.804-2.393-14.805-1.795-5.002.598-9.476 1.097-13.425 1.496-1.184-1.795-2.599-2.692-4.244-2.692s-3.356.399-5.133 1.196c-1.776.798-3.553 1.595-5.33 2.393-1.777.797-3.455.996-5.034.598-1.316 1.594-2.928 2.641-4.836 3.139-1.909.499-3.982.947-6.219 1.346-.132.997 0 1.644.395 1.944.395.299.461.946.197 1.943.79 1.396 1.81 2.392 3.06 2.99s2.567 1.196 3.948 1.794c1.382.598 2.6 1.346 3.653 2.243 1.052.897 1.776 2.342 2.171 4.336 1.974 0 3.685.698 5.133 2.093s2.632 3.09 3.553 5.083c.922 1.994 1.612 4.137 2.073 6.429.461 2.293.691 4.336.691 6.13.395 1.595.856 2.293 1.382 2.093.526-.199 1.119.2 1.777 1.196.394 2.592 1.382 5.233 2.961 7.924s2.829 5.632 3.751 8.821c.263 4.984.46 9.419.592 13.307.132 3.887-.329 7.824-1.382 11.811-1.974 7.376-4.705 13.954-8.193 19.735-3.487 5.781-7.435 10.914-11.844 15.4-4.409 4.485-9.114 8.322-14.115 11.512-5.001 3.189-9.871 5.88-14.609 8.073-.526-.199-1.053-.199-1.579 0-.527.2-.658-.299-.395-1.495-1.053 1.396-2.204 2.293-3.455 2.691-1.25.399-2.599.548-4.047.449-1.447-.1-2.928-.249-4.441-.449-1.514-.199-2.929-.099-4.245.299-.921-1.395-1.744-2.741-2.467-4.036-.724-1.296-1.284-2.941-1.679-4.934-.658 0-.954-.499-.888-1.495.066-.997-.164-1.495-.691-1.495.79-1.994 1.152-3.14 1.086-3.439s-.263-.548-.592-.748c-.329-.199-.625-.448-.889-.747-.263-.299-.329-.748-.197-1.346.526-1.595.724-3.439.592-5.532-.131-2.093-.263-4.236-.395-6.429-.131-2.192-.033-4.285.296-6.279.33-1.993 1.284-3.588 2.863-4.784 4.475.797 8.719.548 12.733-.748s7.798-3.139 11.351-5.532c3.554-2.392 6.943-4.983 10.167-7.774s6.416-5.283 9.575-7.476c.394-1.794.954-3.289 1.678-4.485.723-1.196 1.48-2.292 2.27-3.289.789-.997 1.513-2.093 2.171-3.289s1.119-2.691 1.382-4.486c.132-1.395-.098-2.242-.691-2.541-.592-.299-.888-1.047-.888-2.243l-2.172-.897c-2.5-2.193-5.33-4.037-8.488-5.532-3.159-1.495-5.857-3.139-8.094-4.934-1.448 1.197-2.797 1.496-4.047.898-1.25-.599-2.863-1.197-4.837-1.795-4.474-.398-8.785-1.096-12.93-2.093-4.146-.996-8.127-2.791-11.944-5.382-.263-.997-.592-1.894-.987-2.691-.395-.798-1.119-.997-2.171-.598-.79-1.595-1.58-3.14-2.369-4.635-.79-1.495-1.514-3.14-2.172-4.934.263-2.392.461-4.435.592-6.13.132-1.694-.263-3.339-1.184-4.934.526-2.591.921-4.684 1.184-6.279.264-1.595.264-3.688 0-6.279z" />
    <path
      d="m467.671 82.828c-3.291 0-6.844.349-10.661 1.047-3.816.697-7.567 1.445-11.252 2.242-2.632.598-5.166 1.097-7.601 1.495-2.434.399-4.639.698-6.613.897-.921 4.386-1.842 8.273-2.764 11.662-.921 3.389-1.908 6.678-2.961 9.868-1.053 3.389-2.007 6.827-2.862 10.316-.856 3.488-1.678 7.226-2.468 11.213-1.316 3.19-2.402 6.13-3.257 8.821-.856 2.691-1.547 5.731-2.073 9.12-1.58 2.99-2.764 6.13-3.554 9.419-.789 3.29-1.382 6.13-1.776 8.522l-.79 3.589c-.79 1.196-1.25 2.143-1.382 2.84-.132.698-.461 1.346-.987 1.944-.132 2.193-.592 4.385-1.382 6.578-.263.997-.46 1.944-.592 2.841s-.198 1.545-.198 1.944c0 1.993-.329 3.289-.987 3.887.132.997.132 2.043 0 3.14-.131 1.096-.263 2.142-.394 3.139-.395 2.392-.527 4.286-.395 5.682.395.797.757 1.495 1.086 2.093s.559 1.395.69 2.392c.79.797 1.382 1.296 1.777 1.495.527.598 1.316 1.296 2.369 2.093l1.777 2.99c.658 5.781.066 10.366-1.777 13.755-1.974 3.788-5.33 5.681-10.068 5.681h-2.369c-.658-.996-1.053-1.794-1.184-2.392-1.053-.598-1.909-1.096-2.567-1.495-.658-.398-1.25-1.196-1.776-2.392-1.711-1.196-3.093-2.193-4.146-2.99l-1.777-1.495v-3.588c-.921-1.795-1.612-3.788-2.073-5.981-.46-2.193-.822-4.385-1.085-6.578-.264-1.794-.56-3.489-.889-5.084-.329-1.594-.756-2.99-1.283-4.186-.263-11.562.461-21.33 2.172-29.304 1.711-7.973 3.487-15.648 5.33-23.024 1.053-3.987 2.105-8.024 3.158-12.11 1.053-4.087 1.974-8.323 2.764-12.709l1.777-2.99c.921-3.189 1.678-5.831 2.27-7.924s1.217-4.236 1.876-6.429c.394-1.395.756-2.741 1.085-4.036.329-1.296.625-2.442.889-3.439-.79 0-1.514.05-2.172.149-.658.1-1.316.25-1.974.449-.79.199-1.514.349-2.172.448-.658.1-1.316.15-1.974.15-.921 0-1.579-.1-1.974-.299-1.448.997-3.027 1.495-4.738 1.495h-1.974c-.395 0-.757-.05-1.086-.149-.329-.1-.625-.15-.888-.15-1.316 0-2.369.299-3.159.897h-6.514c-.263 0-.592.05-.987.15-.395.099-.724.149-.987.149-.922 0-1.909-.149-2.962-.448-1.052-.299-2.171-.947-3.356-1.944-1.579-3.19-2.632-4.884-3.158-5.083l-1.777-3.589c-.131-1.196-.329-2.342-.592-3.438-.263-1.097-.527-2.343-.79-3.738-.526-1.993-1.02-4.136-1.48-6.429-.461-2.292-.691-5.033-.691-8.223.131-1.595.395-2.791.789-3.588.395-.798.724-1.495.987-2.093l.593-4.486 2.566.299h5.528c4.211 0 8.488-.249 12.831-.747 4.344-.498 8.818-1.047 13.424-1.645 2.633-.398 5.298-.797 7.996-1.196 2.698-.398 5.494-.797 8.39-1.196.526-1.794 1.053-3.488 1.579-5.083l1.974-1.495c2.369-.2 4.047.249 5.034 1.345.987 1.097 1.81 2.143 2.468 3.14 2.895-.399 5.824-.847 8.785-1.346 2.961-.498 5.955-1.146 8.982-1.943 4.475-.997 8.982-1.894 13.523-2.691 4.54-.798 8.916-1.196 13.128-1.196 1.842 0 3.619.099 5.33.299 1.711.199 3.29.498 4.738.897l1.974 2.093c.395 1.196.954 2.292 1.678 3.289s1.48 1.993 2.27 2.99c1.579 2.193 3.159 4.784 4.738 7.775 1.579 2.99 2.172 7.375 1.777 13.156-1.053 2.393-1.843 3.788-2.369 4.187l-1.777 3.588-1.974-.299c-.79 0-1.514.149-2.172.448s-1.316.648-1.974 1.047c-.526.399-1.053.748-1.579 1.047s-1.119.548-1.777.747c-1.184 0-2.138-.05-2.862-.149-.724-.1-1.481-.15-2.27-.15z" />
    <path
      d="m562.429 58.309c.131 1.395.164 2.442.098 3.139-.066.698-.131 1.346-.197 1.944s-.099 1.246-.099 1.944c0 .697.132 1.744.395 3.139-2.764 6.778-5.955 11.413-9.575 13.905-3.619 2.491-7.534 4.286-11.746 5.382-4.211 1.096-8.521 2.243-12.93 3.439s-8.785 3.787-13.128 7.774c-1.711-.997-3.257-.997-4.639 0s-3.389 1.296-6.021.897c-.79 1.196-1.777 2.043-2.961 2.542-1.185.498-2.369 1.046-3.554 1.644.527 1.795.757 3.638.691 5.532s.099 3.439.494 4.635c4.606.598 9.706.498 15.299-.299s11.088-1.296 16.484-1.495c.132.997.066 1.645-.197 1.944-.264.299-.329.847-.198 1.644.921.997 1.843 2.243 2.764 3.738s1.842 2.94 2.764 4.336c.921 1.395 1.875 2.541 2.862 3.438s2.139 1.246 3.455 1.047c.526 1.595.888 3.339 1.086 5.233.197 1.894.033 3.837-.494 5.831-2.106 2.192-4.211 4.435-6.317 6.728-2.106 2.292-4.31 4.335-6.613 6.129-2.304 1.795-4.738 3.24-7.305 4.336-2.566 1.097-5.428 1.545-8.587 1.346h-1.481c-.329 0-.756-.299-1.283-.897-1.053.996-2.533 1.295-4.442.897-1.908-.399-3.389-.1-4.441.897-1.448-.997-3.192-1.445-5.232-1.346-2.04.1-3.849-.249-5.429-1.046-2.105 4.186-4.014 8.671-5.725 13.456-1.711 4.784-3.224 9.867-4.54 15.249 4.475.997 8.192 1.396 11.154 1.197 2.961-.2 5.758-.549 8.39-1.047s5.33-.997 8.094-1.495c2.763-.498 6.251-.648 10.462-.449 2.633-2.192 5.758-3.638 9.378-4.335 3.619-.698 6.942-1.844 9.969-3.439 1.053.598 1.974 1.644 2.764 3.14.789 1.495 1.546 2.89 2.27 4.186s1.481 2.442 2.27 3.439c.79.996 1.777 1.395 2.961 1.196.527.797.889 1.744 1.086 2.84.198 1.097.362 2.143.494 3.14.131.997.362 1.844.691 2.542.329.697.888.947 1.678.747-1.975 6.579-4.245 11.612-6.811 15.101-2.566 3.488-5.495 6.13-8.785 7.924s-6.942 3.189-10.956 4.186-8.456 2.193-13.326 3.588c-1.184.399-2.171.349-2.961-.149-.79-.499-1.711-.748-2.764-.748-3.027.997-6.646 1.894-10.857 2.691-4.212.798-8.489 1.097-12.832.897-4.343-.199-8.489-1.046-12.437-2.541s-7.173-4.137-9.673-7.924c-1.053-1.396-1.744-3.04-2.073-4.934s-1.218-3.339-2.665-4.336c-.132-2.591-.395-5.482-.79-8.671-.395-3.19-.79-6.529-1.184-10.018-.395-3.488-.691-6.927-.889-10.316-.197-3.389-.099-6.478.296-9.269.395-2.991 1.218-5.682 2.468-8.074s1.678-4.983 1.283-7.774c.658-.2 1.053-.748 1.185-1.645.131-.897.658-1.246 1.579-1.046.79-3.589 1.645-6.978 2.566-10.167.922-3.19 1.876-6.279 2.863-9.27.987-2.99 1.974-6.03 2.961-9.12s1.941-6.528 2.862-10.316c-1.842-2.591-3.191-5.432-4.047-8.522-.855-3.09-1.48-6.18-1.875-9.269-.395-3.09-.724-6.28-.987-9.569s-.724-6.628-1.382-10.017c1.316-2.99 2.928-5.432 4.837-7.326 1.908-1.894 3.981-3.439 6.218-4.635 2.238-1.196 4.672-2.193 7.304-2.99 2.633-.797 5.396-1.695 8.292-2.691 5.264-2.592 9.969-4.585 14.115-5.981 4.145-1.395 8.225-2.541 12.239-3.438s8.193-1.745 12.536-2.542 9.278-1.993 14.806-3.588c1.185 1.794 2.303 2.691 3.356 2.691.526-1.794 1.152-2.342 1.875-1.645.724.698 1.02.15.889-1.644 1.316 3.389 2.994 6.229 5.034 8.522 2.04 2.292 4.31 4.236 6.811 5.831z" />
    <path
      d="m587.5 195.558c-1.448 7.974-2.731 14.004-3.85 18.091-1.118 4.086-2.796 8.322-5.034 12.708-1.71-.399-2.895-.1-3.553.897s-1.382 1.894-2.172 2.691c-1.184.399-2.039.399-2.566 0-.526-.398-.987-.847-1.382-1.345-.395-.499-.888-.997-1.48-1.495-.593-.499-1.481-.748-2.665-.748-.264-1.595-.56-3.09-.889-4.485-.329-1.396-1.217-1.894-2.665-1.495.263-1.595.329-2.941.198-4.037-.132-1.097-.297-2.093-.494-2.99s-.362-1.794-.494-2.691c-.131-.898-.065-2.044.198-3.439-.658 0-1.185-.698-1.579-2.093-.395-1.396-.856-2.791-1.382-4.187.395-3.588.789-6.977 1.184-10.166.395-3.19.889-6.18 1.481-8.971s1.086-5.581 1.48-8.372c.395-2.791.198-5.682-.592-8.672.527.598.921.449 1.185-.448.263-.897.46-2.093.592-3.589.131-1.495.197-2.99.197-4.485s-.066-2.741-.197-3.738c1.316-5.183 2.402-10.515 3.257-15.997.856-5.482 1.645-10.914 2.369-16.297.724-5.382 1.481-10.665 2.27-15.848.79-5.183 1.843-9.967 3.159-14.352 1.448-.399 3.06-.15 4.837.747 1.776.897 2.862 2.043 3.257 3.439 3.422-3.987 6.449-8.821 9.081-14.503 2.632-5.681 5.33-11.213 8.094-16.595s5.823-10.167 9.179-14.353 7.601-6.678 12.734-7.475c2.632 2.99 5.56 6.03 8.784 9.12 3.225 3.089 5.89 7.126 7.996 12.11 1.053.797 1.941 1.644 2.665 2.542.724.897 1.612 1.843 2.665 2.84v3.588c1.579 2.193 2.862 4.735 3.849 7.625.987 2.891 1.876 5.981 2.665 9.27.79 3.289 1.58 6.578 2.369 9.868.79 3.289 1.711 6.428 2.764 9.419-.263.996-.395 1.844-.395 2.541 0 .698.099 1.446.296 2.243.198.797.362 1.595.494 2.392s.132 1.894 0 3.289c-.395 8.772-2.27 15.848-5.626 21.231-3.356 5.382-7.403 9.817-12.141 13.306-4.738 3.488-9.805 6.429-15.201 8.821s-10.265 4.984-14.608 7.774c0 .798.23 1.197.69 1.197.461 0 .626.498.494 1.495 3.159 2.99 5.659 5.382 7.502 7.176 1.842 1.794 3.586 3.289 5.231 4.485s3.422 2.243 5.33 3.14c1.909.897 4.574 1.944 7.995 3.14 3.422 1.196 6.087 2.143 7.996 2.84 1.908.698 3.652 1.296 5.231 1.795 1.579.498 3.192.897 4.837 1.196s3.981.647 7.008 1.046c1.184 1.794 2.204 3.937 3.06 6.429.855 2.492 1.415 4.984 1.678 7.476.263 2.491.329 4.883.197 7.176-.131 2.292-.592 4.136-1.382 5.532.132.598.428.847.889.747.46-.099.954-.049 1.48.15-.789.797-1.447 1.794-1.974 2.99-.526 1.196-1.053 2.392-1.579 3.588-.527 1.196-1.119 2.243-1.777 3.14s-1.579 1.445-2.764 1.645c-4.08 2.392-9.212 2.541-15.398.448-6.185-2.093-14.016-5.93-23.492-11.512-4.738-2.791-8.587-5.233-11.549-7.326-2.961-2.093-5.527-4.186-7.699-6.279-2.171-2.094-4.145-4.336-5.922-6.728-1.777-2.393-3.915-5.283-6.416-8.672zm28.23-102.563c-1.448 3.189-3.06 6.08-4.837 8.671-1.776 2.592-3.487 5.233-5.132 7.924s-3.126 5.682-4.442 8.971-2.237 7.126-2.764 11.512c4.606-.797 9.41-2.741 14.411-5.831s9.739-6.03 14.214-8.821c-.526-6.18-1.941-11.163-4.244-14.951-2.304-3.787-4.705-6.279-7.206-7.475z" />
    <path
      d="m684.43 229.945c-3.817-1.395-6.745-3.738-8.785-7.027s-3.554-7.176-4.541-11.661c-.987-4.486-1.645-9.42-1.974-14.802s-.691-10.964-1.086-16.745c.527-2.591 1.218-4.784 2.073-6.578.856-1.794 1.218-4.286 1.086-7.476 1.448-6.379 2.764-12.559 3.948-18.539 1.185-5.98 1.974-12.16 2.369-18.539.79-1.794 1.579-2.99 2.369-3.588 1.053-11.363 1.185-23.025.395-34.985-.79-11.961-2.106-23.025-3.948-33.191.131-2.193.329-3.838.592-4.934.263-1.097.263-2.044 0-2.841-.263-1.794.132-2.691 1.184-2.691h3.159c0-3.588-.428-7.127-1.283-10.615-.856-3.489-1.678-7.526-2.468-12.111 1.053-3.588 1.777-7.076 2.172-10.465s1.118-6.479 2.171-9.27c4.212 1.994 8.357 4.286 12.437 6.878 4.08 2.591 8.094 5.133 12.042 7.625 3.949 2.491 7.831 4.884 11.648 7.176 3.816 2.293 7.567 4.137 11.252 5.532 5.659 6.18 11.483 12.31 17.471 18.39s11.45 12.758 16.386 20.034c4.935 7.276 9.048 15.599 12.338 24.968s5.198 20.433 5.725 33.191c-.263 1.196-.461 2.193-.592 2.99-.132.797-.264 1.595-.395 2.392-.132.798-.198 1.695-.198 2.691v4.187c-4.738 12.558-10.726 23.124-17.964 31.696-7.239 8.571-15.135 16.147-23.69 22.725-8.554 6.578-17.471 12.609-26.749 18.091-9.279 5.482-18.327 11.313-27.144 17.492zm19.346-169.543c-1.184 0-2.04.398-2.566 1.196 1.579 8.97 2.763 17.443 3.553 25.416.79 7.974 1.217 15.948 1.283 23.922s-.23 16.147-.888 24.519c-.658 8.373-1.579 17.443-2.764 27.211 1.711-.199 3.225-.698 4.541-1.495s2.665-1.694 4.047-2.691c1.381-.997 2.829-1.894 4.343-2.691 1.513-.798 3.257-1.296 5.231-1.495.527-1.595 1.217-2.841 2.073-3.738.855-.897 1.612-1.844 2.27-2.841 3.29-1.993 6.581-4.086 9.871-6.279s6.317-4.685 9.081-7.476 5.264-5.98 7.501-9.568c2.238-3.589 4.08-7.874 5.528-12.858-1.053-2.99-2.336-5.532-3.85-7.625-1.513-2.093-3.092-4.186-4.737-6.279-1.646-2.094-3.225-4.286-4.738-6.579-1.514-2.292-2.731-4.934-3.652-7.924-2.106-.399-3.949-1.246-5.528-2.542-1.579-1.295-3.093-2.591-4.54-3.887-1.448-1.296-2.995-2.541-4.64-3.737-1.645-1.197-3.586-1.894-5.823-2.094-3.422-2.79-6.515-4.734-9.279-5.83-2.764-1.097-4.869-2.642-6.317-4.635z" />
    <path
      d="m778.99 198.249 2.567-2.99.197-6.279c3.29-12.16 6.679-23.822 10.167-34.985 3.487-11.164 7.14-22.626 10.956-34.388 1.185-3.787 2.402-7.575 3.652-11.362 1.251-3.788 2.468-7.675 3.652-11.662-.131-.797-.197-1.645-.197-2.542s.132-1.943.395-3.139c1.842-3.987 3.323-7.576 4.442-10.765 1.118-3.19 2.204-6.479 3.257-9.868 1.184-3.987 2.468-7.973 3.85-11.96 1.381-3.987 3.125-7.875 5.231-11.662l1.382-2.99 2.171.299c.527-.399 1.086-.748 1.678-1.047.593-.299 1.349-.448 2.271-.448l3.553.897c4.343-2.991 8.193-7.326 11.549-13.008 3.356-5.681 6.745-12.509 10.166-20.482l2.369-5.084 3.159 2.99c.658.599 1.711 1.197 3.159 1.795 1.447.598 2.961 1.295 4.54 2.093 2.764.996 5.462 2.143 8.094 3.438 2.632 1.296 4.672 3.04 6.12 5.233l.987 2.691c.263 2.193.493 4.187.691 5.981.197 1.794.428 3.588.691 5.382.526 4.186.987 8.323 1.382 12.409.394 4.087.658 8.622.789 13.606.658 3.987 1.283 8.023 1.876 12.11.592 4.087 1.151 8.123 1.678 12.11.658 5.781 1.382 11.313 2.171 16.596.79 5.282 1.843 10.316 3.159 15.1 1.316 0 2.106.1 2.369.299 1.579-.997 3.422-1.595 5.527-1.794l2.567-.299.789 3.588c.264.598.593 1.196.987 1.794.395.598.856 1.196 1.382 1.795 2.106.199 3.652.847 4.64 1.943.987 1.097 1.809 2.143 2.467 3.14.263.399.592.847.987 1.345.395.499.724.848.987 1.047l3.554 2.093-1.974 5.681c-1.448 4.187-3.653 8.273-6.614 12.26s-6.284 7.276-9.969 9.868c.263 1.395.428 2.691.493 3.887.066 1.196.231 2.592.494 4.186.526 3.987.954 8.124 1.283 12.41s.296 8.721-.099 13.306c-1.316 5.183-2.862 9.818-4.639 13.904-1.776 4.087-3.882 7.775-6.317 11.064s-5.166 5.98-8.193 8.073c-3.027 2.094-6.185 3.24-9.475 3.439-1.843-.598-3.192-1.296-4.047-2.093-.856-.797-1.613-1.595-2.271-2.392-1.052-1.196-1.908-1.994-2.566-2.392l-2.566-1.794.789-4.486c.395-1.594.362-2.99-.098-4.186-.461-1.196-1.415-2.791-2.863-4.784-.526-.598-.987-1.246-1.382-1.944s-.855-1.445-1.382-2.242l-3.948-6.878 6.515-2.691c3.948-1.595 6.58-3.638 7.896-6.13s1.843-6.927 1.58-13.306c-3.291-.997-5.989-1.146-8.094-.449-2.106.698-4.212 1.445-6.318 2.243-3.027 1.196-5.988 2.243-8.883 3.14-2.896.897-6.054 1.345-9.476 1.345-2.237 0-4.606-.299-7.107-.897l-2.171-.299-.593-3.289c0-.399-.164-.847-.493-1.346-.329-.498-.625-.947-.888-1.345-.658-1.196-1.448-2.791-2.369-4.785-.922-1.993-1.119-4.485-.593-7.475-.921-2.193-1.447-4.485-1.579-6.877-.526 1.594-.954 3.139-1.283 4.634s-.625 2.941-.888 4.336l-.79 3.887-2.566.598c-.264.399-.494.997-.691 1.794-.198.798-.231 1.396-.099 1.795l.79 3.289-1.975 2.691c-.263.598-.592 1.096-.987 1.495s-.724.797-.987 1.196c-.263 2.193-.625 4.286-1.086 6.28-.46 1.993-.954 3.986-1.48 5.98-.658 3.189-1.283 6.279-1.876 9.269-.592 2.991-.888 5.981-.888 8.971l-.79 3.887c-.658 1.595-1.48 2.791-2.467 3.588-.987.798-1.941 1.496-2.863 2.094-1.316.797-2.237 1.594-2.763 2.392l-.593 3.887-2.961.598c-1.711.598-2.928.997-3.652 1.196s-1.546.299-2.468.299l-2.566-.299c-1.579-2.392-2.863-4.236-3.85-5.532-.987-1.295-2.138-2.442-3.454-3.438l-1.185-2.393c-.526-1.594-.855-3.04-.987-4.335-.131-1.296-.329-2.642-.592-4.037-.263-2.592-.658-4.386-1.185-5.382zm62.975-77.745c-1.843 3.987-3.619 8.174-5.33 12.559.921-.199 1.809-.299 2.665-.299.855 0 1.744-.099 2.665-.299 4.606-.398 8.883-.897 12.832-1.495 3.948-.598 8.225-1.595 12.832-2.99-1.053-7.376-2.205-14.901-3.455-22.576s-2.599-15.399-4.047-23.174l-.987 2.99c-3.29 5.383-6.449 11.164-9.476 17.343-3.027 6.18-5.528 12.061-7.502 17.642z" />
  </g>
</svg>