<svg fill="none" height="43" viewBox="0 0 115 31" xmlns="http://www.w3.org/2000/svg">
  <g fill="#CFCECD">
    <path d="m108.211 5.89722h-5.669l7.248 8.84618-7.248 8.8462h5.669l6.789-8.8462z" />
    <path d="m83.4517 5.89722h5.6725l-7.2453 8.84618 7.2453 8.8462h-5.6725l-6.7858-8.8462z" />
    <path d="m6.78901 5.89722h5.66929l-7.24868 8.84618 7.24868 8.8462h-5.66929l-6.78901-8.8462z" />
    <path
      d="m46.0506 18.721c-.8241.904-1.9015 1.356-3.226 1.356-.8713 0-1.6366-.2049-2.3018-.6147s-1.1833-.9763-1.56-1.7054c-.3768-.7292-.5652-1.5789-.5652-2.5431s.1884-1.7778.5652-2.5069c.3767-.7292.8948-1.3017 1.56-1.7055.6652-.4097 1.4305-.6146 2.3018-.6146s1.6719.2049 2.343.6146c.6652.4098 1.1833.9763 1.56 1.7055.3768.7291.5652 1.5668.5652 2.5069 0 1.4342-.4121 2.6033-1.2363 3.5072zm.9831-10.74473c-.4827-.52428-1.0478-.95817-1.7072-1.30167-.989-.51826-2.1193-.77738-3.3732-.77738-1.5953 0-3.0376.40978-4.3151 1.22332-1.2834.81957-2.2841 1.9284-3.0082 3.33856-.7241 1.4101-1.0891 3.0071-1.0891 4.7908 0 1.7838.365 3.3446 1.0891 4.7547.7241 1.4102 1.7307 2.525 3.0082 3.3446 1.2834.8196 2.7198 1.2233 4.3151 1.2233 1.2539 0 2.3783-.2651 3.3732-.8015.6594-.3555 1.2245-.7894 1.7072-1.3137v1.7356h4.7155v-17.93411h-4.7155v1.71145z" />
    <path
      d="m65.2342 19.6285c-.6404.2827-1.3572.4271-2.1562.4271-.8695 0-1.645-.2045-2.3324-.6135s-1.2279-.9744-1.6274-1.7022c-.3995-.7277-.5992-1.5637-.5992-2.502s.1997-1.7984.5992-2.5021.94-1.257 1.6274-1.666 1.4629-.6135 2.3324-.6135c.7697 0 1.4806.1383 2.1151.409.6403.2706 1.1867.6676 1.645 1.1848l3.0433-3.1516c-.846-.96234-1.8448-1.70213-3.0022-2.2254-1.1574-.51726-2.4264-.77588-3.8012-.77588-1.7625 0-3.3605.415-4.794 1.239-1.4394.83002-2.5675 1.94272-3.3841 3.35618-.8225 1.4074-1.2338 3.0012-1.2338 4.7816 0 1.7803.4113 3.3381 1.2338 4.7455s1.9447 2.5201 3.3664 3.3321c1.4218.8179 3.0257 1.2209 4.8117 1.2209 1.3748 0 2.6438-.2586 3.8012-.7759 1.1574-.5172 2.1855-1.275 3.0786-2.2614l-3.0786-3.1517c-.4582.5413-1.0105.9563-1.645 1.239" />
    <path d="m76.6668 14.4873v-14.4873h-4.7916v23.5899h4.7916v-8.1628" />
    <path
      d="m98.2907 0h-4.9215v6.02583h-4.2445v4.18447h4.2445v13.3796h4.9215v-13.3796h4.2503v-4.18447h-4.2503z" />
    <path
      d="m26.2015 17.9209c-.3768.7393-.901 1.3197-1.5782 1.7351-.6772.4155-1.4486.6232-2.3202.6232-.8715 0-1.6371-.2077-2.3025-.6232-.6654-.4154-1.1837-.9897-1.5606-1.7351-.3768-.7393-.5653-1.6007-.5653-2.5783 0-.9775.1885-1.8023.5653-2.5415.3769-.7393.901-1.3197 1.5783-1.7291.6772-.4154 1.4368-.6231 2.2848-.6231s1.643.2077 2.3202.6231c.6772.4155 1.2014.9898 1.5782 1.7291.3769.7392.5654 1.5884.5654 2.5415s-.1885 1.839-.5654 2.5783zm1.2897-10.78344c-1.2838-.82479-2.7324-1.24024-4.3519-1.24024-1.2602 0-2.3908.27493-3.3919.82479-.5948.32992-1.1189.72704-1.5782 1.18526v-1.74734h-4.7523v24.31007h4.7169v-7.6248c.4594.4582.9894.8493 1.5959 1.1731 1.0129.5376 2.1494.8125 3.4096.8125 1.6195 0 3.074-.4154 4.3519-1.2402 1.2838-.8309 2.2907-1.9551 3.0269-3.3908.7361-1.4297 1.1071-3.0365 1.1071-4.8205s-.371-3.4275-1.1071-4.8571c-.7362-1.42967-1.749-2.55994-3.0269-3.39085" />
  </g>
</svg>