<svg clip-rule="evenodd" fill-rule="evenodd" stroke-linejoin="round" stroke-miterlimit="2" width="115" height="43" viewBox="0 0 115 43" xmlns="http://www.w3.org/2000/svg">
  <g fill="#fff" fill-rule="nonzero" transform="matrix(2.17127 0 0 2.17127 -1.790540992 -1.401682452)">
    <path d="m9.934 12.027c-.12-.223-.285-.462-.443-.39-.231.106-.547.79-.397.878.15.09.96-.266.84-.488" />
    <path d="m9.37 7.626c-1.802-.003-3.527.744-4.757 2.06v-9.048l-3.81 4.855v14.774h3.81v-5.938c.283.302 1.322.834 2.191-.007.69-.668.604-1.712.604-1.712s-.329 1.712-1.477 1.701c-1.814-.016-1.425-1.44-.657-2.618.998-1.531 1.992-1.226 3.079-1.246 1.285-.023 2.177.518 2.309.597.131.077 1.856.049 2.774.061.766.011.585.353.428 1.755-.158 1.401-1.03 1.589-2.925 2.314-1.371.524-1.674 2.877-4.218 4.724.834.37 1.737.56 2.649.56 3.583 0 6.49-2.874 6.49-6.417 0-3.542-2.907-6.415-6.49-6.415" />
    <path d="m24.176 13.849c.775-.191 1.275-.658 1.275-1.519 0-1.19-.818-1.902-2.986-1.902h-2.668v7.438h3.082c2.125 0 2.976-.914 2.976-2.146 0-.999-.532-1.647-1.679-1.871zm-1.594-2.136c.775 0 1.222.202 1.222.829s-.457.872-1.042.872h-1.339v-1.701zm.361 4.868h-1.52v-2.02h1.499c.574 0 1.254.17 1.254 1.042 0 .68-.521.978-1.233.978z" />
    <path d="m32.231 10.428h-4.963v7.438h5.058v-1.339h-3.432v-1.806h3.114v-1.297h-3.114v-1.657h3.337z" />
    <path d="m35.559 10.428h-1.626v7.438h4.835v-1.392h-3.209z" />
    <path d="m44.559 17.866h1.912l-2.901-4.41 2.636-3.028h-1.913l-2.752 3.251v-3.251h-1.626v7.438h1.626v-2.231l.924-1.042z" />
    <path d="m52.016 17.866h1.721l-2.412-7.438h-2.04l-2.413 7.438h1.658l.34-1.169h2.806zm-1.743-6.195 1.041 3.73h-2.082z" />
  </g>
</svg>