<svg height="43" viewBox="0 0 123.01 63.1" xmlns="http://www.w3.org/2000/svg">
  <g transform="translate(-.82 -.95)">
    <path fill="#FFF"
      d="m8.83 64.05a7.68 7.68 0 0 1 -5.72-2.32 7.79 7.79 0 0 1 -2.29-5.73 7.93 7.93 0 0 1 8.18-8.1 9 9 0 0 1 3.53.61 8.23 8.23 0 0 1 2.63 1.8l-2.18 2.52a5.93 5.93 0 0 0 -4-1.76 4.2 4.2 0 0 0 -3.23 1.41 4.92 4.92 0 0 0 -1.3 3.45 5.07 5.07 0 0 0 1.28 3.48 4.19 4.19 0 0 0 3.25 1.42 4.89 4.89 0 0 0 2.17-.44 8.55 8.55 0 0 0 1.94-1.39l2.18 2.21a9.2 9.2 0 0 1 -2.77 2.09 8.42 8.42 0 0 1 -3.67.75z" />
    <path fill="#FFF"
      d="m29.39 61.7a8.1 8.1 0 0 1 -5.95 2.35 8 8 0 0 1 -5.92-2.33 7.7 7.7 0 0 1 -2.35-5.72 7.77 7.77 0 0 1 2.37-5.73 8.12 8.12 0 0 1 5.95-2.35 8.08 8.08 0 0 1 5.92 2.33 7.72 7.72 0 0 1 2.36 5.7 7.78 7.78 0 0 1 -2.38 5.75zm-9.29-2.24a4.44 4.44 0 0 0 3.39 1.42 4.4 4.4 0 0 0 3.37-1.4 4.86 4.86 0 0 0 1.31-3.48 4.9 4.9 0 0 0 -1.33-3.48 4.45 4.45 0 0 0 -3.4-1.43 4.45 4.45 0 0 0 -3.37 1.4 4.9 4.9 0 0 0 -1.31 3.46 4.9 4.9 0 0 0 1.34 3.51z" />
    <path fill="#FFF" d="m33.15 63.79v-15.62h3.17l7.32 9.61v-9.61h3.36v15.62h-2.89l-7.57-9.93v9.93z" />
    <path fill="#FFF" d="m49.1 63.79v-15.62h11.9v3.12h-8.46v3.32h7.46v3.13h-7.46v6z" />
    <path fill="#FFF" d="m62.22 63.79v-15.62h3.44v15.62z" />
    <path fill="#FFF"
      d="m75.41 64.05a8.06 8.06 0 0 1 -5.91-2.27 7.75 7.75 0 0 1 -2.3-5.78 7.82 7.82 0 0 1 2.34-5.73 7.91 7.91 0 0 1 5.85-2.35 9.83 9.83 0 0 1 3.43.52 9.07 9.07 0 0 1 2.7 1.56l-2.16 2.61a7.43 7.43 0 0 0 -1.9-1.2 5.56 5.56 0 0 0 -2.18-.38 4.12 4.12 0 0 0 -3.18 1.47 4.9 4.9 0 0 0 -1.31 3.43 4.93 4.93 0 0 0 1.33 3.54 4.46 4.46 0 0 0 3.4 1.41 5.42 5.42 0 0 0 3.24-.88v-2.24h-3.46v-3h6.78v6.79a10 10 0 0 1 -6.67 2.5z" />
    <path
      d="m91.23 64.05a7.35 7.35 0 0 1 -5.55-2.32 7.93 7.93 0 0 1 -2.22-5.73 8 8 0 0 1 2.24-5.72 7.34 7.34 0 0 1 5.57-2.36 8.06 8.06 0 0 1 3.34.63 10.64 10.64 0 0 1 2.73 1.87l-.82.85a7.38 7.38 0 0 0 -5.27-2.27 6.17 6.17 0 0 0 -4.7 2 7 7 0 0 0 -1.88 5 7 7 0 0 0 1.91 5 6.15 6.15 0 0 0 4.69 2 6.56 6.56 0 0 0 2.88-.6 9.47 9.47 0 0 0 2.5-1.83l.78.76a10.49 10.49 0 0 1 -2.81 2 7.83 7.83 0 0 1 -3.39.72z"
      fill="#cacaca" />
    <path
      d="m97.61 63.79 7.27-15.74h1.12l7.27 15.74h-1.27l-2-4.38h-9.2l-2 4.38zm3.68-5.43h8.23l-4.1-9z"
      fill="#cacaca" />
    <path d="m117.22 63.79v-14.55h-5.44v-1.07h12v1.07h-5.45v14.55z" fill="#cacaca" />
    <path
      d="m70.76 12.06v-11.06l-11.11 11.06h-9.24l-7.41-7.41v24.08a11.11 11.11 0 0 0 11.12 11.11h16.67v-27.78z"
      fill="#cacaca" />
  </g>
  <rect fill="#fff" height="9.58" rx="4.62" width="21.07" x="45.54" y="14.9" />
  <circle cx="61.42" cy="19.69" r="3.7" />
  <path
    d="m51.49 17.73a3 3 0 1 1 -3 3 3 3 0 0 1 3-3m0-.74a3.71 3.71 0 1 0 3.7 3.71 3.71 3.71 0 0 0 -3.7-3.7z"
    fill="#cacaca" transform="translate(-.82 -.95)" />
  <path
    d="m58.56 28.25a.37.37 0 0 0 -.53 0l-1.13 1.13-1.14-1.13a.37.37 0 1 0 -.52.52l1.29 1.29v2.52a.37.37 0 0 0 .37.37.38.38 0 0 0 .37-.37v-2.52l1.29-1.29a.37.37 0 0 0 0-.52z"
    fill="#fff" transform="translate(-.82 -.95)" />
  <path
    d="m41.72 29.67h7.5a.28.28 0 0 0 .28-.28.27.27 0 0 0 -.28-.28h-7.5a.27.27 0 0 0 -.28.28.28.28 0 0 0 .28.28z"
    fill="#fff" transform="translate(-.82 -.95)" />
  <path
    d="m50.64 30.45h-10.34a.28.28 0 0 0 -.28.28.29.29 0 0 0 .28.28h10.34a.29.29 0 0 0 .28-.28.28.28 0 0 0 -.28-.28z"
    fill="#fff" transform="translate(-.82 -.95)" />
  <path
    d="m49.22 31.79h-7.5a.27.27 0 0 0 -.28.28.28.28 0 0 0 .28.28h7.5a.28.28 0 0 0 .28-.28.27.27 0 0 0 -.28-.28z"
    fill="#fff" transform="translate(-.82 -.95)" />
  <path d="m64.63 29.39h7.51a.28.28 0 0 0 0-.56h-7.51a.28.28 0 0 0 0 .56z" fill="#fff"
    transform="translate(-.82 -.95)" />
  <path d="m73.55 30.17h-10.33a.28.28 0 1 0 0 .56h10.33a.28.28 0 0 0 0-.56z" fill="#fff"
    transform="translate(-.82 -.95)" />
  <path d="m72.14 31.51h-7.51a.28.28 0 0 0 0 .56h7.51a.28.28 0 0 0 0-.56z" fill="#fff"
    transform="translate(-.82 -.95)" />
  <path
    d="m84.42 19.4a3.74 3.74 0 0 0 -7.25 1.27 3.84 3.84 0 0 0 .3 1.48 11.94 11.94 0 0 1 .71 4.08 12.17 12.17 0 0 1 -12.18 12.16 12.56 12.56 0 0 1 -3.2-.39 15.21 15.21 0 0 0 21.62-18.6z"
    fill="#cacaca" transform="translate(-.82 -.95)" />
</svg>