<svg width="248" height="43" viewBox="0 0 750 130" fill="none" xmlns="http://www.w3.org/2000/svg">
<path d="M194.576 16.2676H134.999H137.353V32.5096H157.412V102.4H174.394V32.5096H194.576V16.2676Z" fill="#fff"/>
<path d="M210.819 51.4587V40.8767H194.945V102.4H210.819V72.9917C210.819 60.0719 221.28 56.3805 229.525 57.3648V39.6463C221.772 39.6463 214.019 43.0916 210.819 51.4587Z" fill="#fff"/>
<path d="M246.508 33.494C251.922 33.494 256.353 29.0644 256.353 23.7734C256.353 18.4824 251.922 13.9297 246.508 13.9297C241.216 13.9297 236.786 18.4824 236.786 23.7734C236.786 29.0644 241.216 33.494 246.508 33.494ZM238.632 102.4H254.507V40.8767H238.632V102.4Z" fill="#fff"/>
<path d="M314.807 40.8768V48.5056C310.5 42.7224 303.855 39.1542 295.117 39.1542C277.643 39.1542 264.476 53.4275 264.476 70.6539C264.476 88.0033 277.643 102.154 295.117 102.154C303.855 102.154 310.5 98.5853 314.807 92.8021V99.4466C314.807 109.167 308.654 114.581 298.686 114.581C289.211 114.581 285.15 110.767 282.565 105.968L269.029 113.72C274.443 123.687 285.027 128.731 298.194 128.731C314.438 128.731 330.312 119.626 330.312 99.4466V40.8768H314.807ZM297.579 87.5112C287.611 87.5112 280.35 80.4975 280.35 70.6539C280.35 60.9332 287.611 53.9196 297.579 53.9196C307.546 53.9196 314.807 60.9332 314.807 70.6539C314.807 80.4975 307.546 87.5112 297.579 87.5112Z" fill="#fff"/>
<path d="M390.49 40.8768V48.5056C386.183 42.7224 379.537 39.1542 370.8 39.1542C353.326 39.1542 340.158 53.4275 340.158 70.6539C340.158 88.0033 353.326 102.154 370.8 102.154C379.537 102.154 386.183 98.5853 390.49 92.8021V99.4466C390.49 109.167 384.337 114.581 374.369 114.581C364.893 114.581 360.832 110.767 358.248 105.968L344.711 113.72C350.126 123.687 360.709 128.731 373.877 128.731C390.12 128.731 405.995 119.626 405.995 99.4466V40.8768H390.49ZM373.261 87.5112C363.293 87.5112 356.033 80.4975 356.033 70.6539C356.033 60.9332 363.293 53.9196 373.261 53.9196C383.229 53.9196 390.49 60.9332 390.49 70.6539C390.49 80.4975 383.229 87.5112 373.261 87.5112Z" fill="#fff"/>
<path d="M432.454 78.1597H478.848C479.217 76.0679 479.463 73.9761 479.463 71.6383C479.463 53.5505 466.542 39.1542 448.329 39.1542C429.008 39.1542 415.841 53.3044 415.841 71.6383C415.841 89.9721 428.885 104.122 449.559 104.122C461.373 104.122 470.603 99.3236 476.386 90.9564L463.588 83.5737C460.881 87.142 455.958 89.726 449.805 89.726C441.437 89.726 434.669 86.2807 432.454 78.1597ZM432.208 65.8551C434.054 57.9802 439.838 53.4274 448.329 53.4274C454.974 53.4274 461.619 56.9958 463.588 65.8551H432.208Z" fill="#fff"/>
<path d="M504.753 51.4587V40.8767H488.878V102.4H504.753V72.9917C504.753 60.0719 515.213 56.3805 523.458 57.3648V39.6463C515.705 39.6463 507.952 43.0916 504.753 51.4587Z" fill="#fff"/>
<path d="M529.488 103.999C535.271 103.999 539.948 99.3235 539.948 93.5403C539.948 87.7572 535.271 83.0815 529.488 83.0815C523.704 83.0815 519.028 87.7572 519.028 93.5403C519.028 99.3235 523.704 103.999 529.488 103.999Z" fill="#fff"/>
<path d="M596.186 16.2676V48.1364C591.756 42.4763 585.233 39.1541 576.25 39.1541C559.76 39.1541 546.224 53.3044 546.224 71.6382C546.224 89.972 559.76 104.122 576.25 104.122C585.233 104.122 591.756 100.8 596.186 95.1399V102.4H612.061V16.2676L596.186 16.2676ZM579.204 88.9876C569.359 88.9876 562.098 81.974 562.098 71.6382C562.098 61.3023 569.359 54.2887 579.204 54.2887C588.925 54.2887 596.186 61.3023 596.186 71.6382C596.186 81.974 588.925 88.9876 579.204 88.9876Z" fill="#fff"/>
<path d="M637.534 78.1596H683.927C684.297 76.0679 684.543 73.9761 684.543 71.6382C684.543 53.5505 671.621 39.1542 653.409 39.1542C634.088 39.1542 620.921 53.3044 620.921 71.6382C620.921 89.9721 633.965 104.122 654.639 104.122C666.453 104.122 675.682 99.3235 681.466 90.9564L668.668 83.5737C665.961 87.142 661.038 89.726 654.885 89.726C646.517 89.726 639.749 86.2807 637.534 78.1596ZM637.288 65.8551C639.134 57.9801 644.917 53.4274 653.409 53.4274C660.054 53.4274 666.699 56.9958 668.668 65.8551H637.288Z" fill="#fff"/>
<path d="M732.413 40.8767L717.4 83.9428L702.509 40.8767H685.035L708.416 102.4H726.506L749.887 40.8767H732.413Z" fill="#fff"/>
<path fill-rule="evenodd" clip-rule="evenodd" d="M35.2181 42.3948L58.9655 1.26855L117.818 103.194H0.112915L23.8602 62.0664L40.6587 71.7642L33.7111 83.7971H84.2198L58.9655 40.0611L52.0178 52.0939L35.2181 42.3948Z" fill="#fff"/>
</svg>
