<svg xmlns="http://www.w3.org/2000/svg" viewBox="0 0 98 99">
  <path fill="inherit" fill-rule="nonzero" d="M97.78 97.732H77.455V66.024c0-7.317 0-17.073-10.57-17.073-10.568 0-12.194 8.13-12.194 17.074v32.52H34.367v-65.04h19.512v8.943c2.44-4.878 8.943-10.57 19.512-10.57 20.325 0 24.39 13.822 24.39 30.895v34.96zM11.602 23.748C5.098 23.748.22 18.058.22 12.366.22 5.862 5.098.17 11.602.17s11.382 4.88 11.382 11.383c.813 6.504-4.878 12.195-11.382 12.195zm10.57 73.984H1.845v-65.04H22.17v65.04z"/>
</svg>
