<svg xmlns="http://www.w3.org/2000/svg" viewBox="0 0 100 85">
  <path fill="inherit" fill-rule="nonzero" d="M100 10.498c-3.75 1.718-7.708 2.792-11.875 3.437 4.167-2.578 7.5-6.658 8.958-11.598C93.125 4.7 88.75 6.417 83.958 7.49c-3.75-4.08-9.166-6.657-15-6.657-11.25 0-20.416 9.45-20.416 21.048 0 1.72.208 3.223.625 4.727-16.875-.86-32.084-9.236-42.292-22.122-1.667 3.22-2.708 6.658-2.708 10.524 0 7.3 3.54 13.744 9.166 17.61-3.333-.215-6.458-1.074-9.375-2.577v.215c0 10.31 7.084 18.9 16.46 20.833-1.668.43-3.543.645-5.418.645-1.25 0-2.708-.214-3.958-.43 2.708 8.377 10.208 14.606 19.166 14.606-7.083 5.585-15.833 9.02-25.416 9.02-1.667 0-3.334 0-4.792-.214 9.167 6.014 19.792 9.45 31.458 9.45 37.71 0 58.334-32.216 58.334-60.137v-2.793c3.958-2.792 7.5-6.443 10.208-10.74z"/>
</svg>
