<svg clip-rule="evenodd" fill-rule="evenodd" stroke-linejoin="round" stroke-miterlimit="2" width="227" height="43" viewBox="0 0 227 43" xmlns="http://www.w3.org/2000/svg">
  <g fill="#fff" fill-rule="nonzero">
    <g transform="matrix(.22901228892 0 0 .22901228892 -23.925514816 -24.33709456)">
      <path d="m162.755 171.386v-27.941c0-4.253 0-6.379.624-8.278.552-1.679 1.455-3.222 2.649-4.526 1.35-1.474 3.203-2.515 6.911-4.598l26.602-14.94c3.545-1.991 5.318-2.986 7.198-3.38 1.663-.348 3.381-.352 5.046-.012 1.882.384 3.66 1.37 7.215 3.344l27.035 15.007c3.738 2.075 5.607 3.113 6.968 4.589 1.204 1.306 2.115 2.854 2.673 4.54.63 1.907.63 4.045.63 8.32v27.807c0 4.237 0 6.355-.62 8.248-.549 1.674-1.446 3.214-2.633 4.516-1.342 1.472-3.185 2.516-6.871 4.604l-27.034 15.306c-3.606 2.042-5.409 3.063-7.321 3.459-1.692.351-3.439.347-5.13-.013-1.91-.406-3.708-1.436-7.303-3.495l-26.602-15.24c-3.656-2.094-5.484-3.141-6.814-4.611-1.176-1.301-2.065-2.835-2.609-4.502-.614-1.885-.614-3.991-.614-8.204z" />
      <path d="m214.78 256.517v-27.941c0-4.252 0-6.378.624-8.277.552-1.679 1.455-3.222 2.649-4.526 1.35-1.474 3.203-2.515 6.911-4.598l26.602-14.94c3.545-1.991 5.318-2.987 7.198-3.38 1.663-.348 3.381-.352 5.046-.012 1.882.383 3.66 1.37 7.215 3.344l27.035 15.007c3.738 2.075 5.607 3.112 6.968 4.589 1.204 1.306 2.115 2.854 2.673 4.54.63 1.907.63 4.045.63 8.32v27.807c0 4.237 0 6.355-.62 8.248-.549 1.674-1.446 3.213-2.633 4.516-1.342 1.472-3.185 2.516-6.871 4.603l-27.034 15.307c-3.606 2.042-5.409 3.062-7.321 3.459-1.692.351-3.439.347-5.13-.013-1.91-.406-3.708-1.436-7.303-3.496l-26.602-15.239c-3.656-2.094-5.484-3.142-6.814-4.611-1.176-1.301-2.065-2.835-2.609-4.502-.614-1.885-.614-3.991-.614-8.205z" />
      <path d="m110.729 256.517v-27.941c0-4.252 0-6.378.625-8.277.552-1.679 1.455-3.222 2.649-4.526 1.35-1.474 3.203-2.515 6.911-4.598l26.602-14.94c3.545-1.991 5.318-2.987 7.198-3.38 1.663-.348 3.381-.352 5.046-.012 1.882.383 3.66 1.37 7.215 3.344l27.035 15.007c3.738 2.075 5.607 3.112 6.968 4.589 1.204 1.306 2.115 2.854 2.673 4.54.63 1.907.63 4.045.63 8.32v27.807c0 4.237 0 6.355-.62 8.248-.549 1.674-1.446 3.213-2.633 4.516-1.342 1.472-3.185 2.516-6.871 4.603l-27.034 15.307c-3.606 2.042-5.409 3.062-7.321 3.459-1.692.351-3.439.347-5.13-.013-1.91-.406-3.708-1.436-7.303-3.496l-26.602-15.239c-3.656-2.094-5.484-3.142-6.814-4.611-1.176-1.301-2.065-2.835-2.609-4.502-.615-1.885-.615-3.991-.615-8.205z" />
    </g>
    <g transform="matrix(.20486310036 0 0 .19239823104 -19.040449504 -13.3451085136)">
      <path d="m415.885 262.109h-26.748v-154.195h73.493v26.789h-46.745v39.762h43.5v26.683h-43.5z" />
      <path d="m526.212 164.867c-5.671 0-10.114 2.162-13.33 6.487-3.216 4.324-5.057 10.459-5.525 18.404h37.536c-.117-7.945-1.842-14.08-5.175-18.404-3.332-4.325-7.834-6.487-13.506-6.487zm3.772 99.352c-15.786 0-28.123-5.239-37.01-15.715-8.887-10.477-13.33-25.313-13.33-44.508 0-19.758 4.107-35.033 12.321-45.826 8.215-10.793 19.572-16.19 34.072-16.19 13.857 0 24.644 4.747 32.361 14.239 7.718 9.492 11.577 22.605 11.577 39.34v15.609h-63.232c.292 9.141 2.543 16.277 6.753 21.41s10.115 7.699 17.715 7.699c5.906 0 11.489-.738 16.751-2.214 5.262-1.477 10.758-3.833 16.488-7.067v24.891c-4.678 2.812-9.676 4.904-14.997 6.275-5.32 1.371-11.81 2.057-19.469 2.057z" />
      <path d="m632.33 164.867c-5.671 0-10.115 2.162-13.331 6.487-3.215 4.324-5.057 10.459-5.525 18.404h37.536c-.117-7.945-1.842-14.08-5.174-18.404-3.333-4.325-7.835-6.487-13.506-6.487zm3.771 99.352c-15.786 0-28.123-5.239-37.01-15.715-8.887-10.477-13.33-25.313-13.33-44.508 0-19.758 4.107-35.033 12.322-45.826 8.214-10.793 19.572-16.19 34.071-16.19 13.857 0 24.644 4.747 32.362 14.239s11.576 22.605 11.576 39.34v15.609h-63.232c.293 9.141 2.544 16.277 6.753 21.41 4.21 5.133 10.115 7.699 17.716 7.699 5.905 0 11.489-.738 16.751-2.214 5.262-1.477 10.757-3.833 16.487-7.067v24.891c-4.677 2.812-9.676 4.904-14.997 6.275-5.32 1.371-11.81 2.057-19.469 2.057z" />
      <path d="m728.888 264.219c-11.518 0-20.566-5.379-27.143-16.137-6.578-10.758-9.867-25.664-9.867-44.719 0-19.336 3.348-34.4 10.042-45.193 6.695-10.793 15.918-16.19 27.67-16.19 12.336 0 21.749 5.766 28.239 17.297h.877c-1.345-8.789-2.017-16.629-2.017-23.519v-37.758h26.836v164.109h-20.522l-5.174-15.293h-1.14c-6.081 11.602-15.348 17.403-27.801 17.403zm9.384-25.629c6.841 0 11.854-2.391 15.04-7.172 3.187-4.781 4.926-12.902 5.219-24.363v-3.481c0-12.656-1.623-21.726-4.868-27.211-3.245-5.484-8.521-8.226-15.83-8.226-5.963 0-10.597 3.041-13.9 9.123-3.304 6.082-4.955 14.924-4.955 26.525 0 11.602 1.666 20.303 4.999 26.104 3.332 5.8 8.097 8.701 14.295 8.701z" />
      <path d="m918.671 262.109h-27.099v-66.55h-50.778v66.55h-27.188v-154.195h27.188v60.434h50.778v-60.434h27.099z" />
      <path d="m947.788 113.715c0-10.477 4.853-15.715 14.558-15.715 9.706 0 14.558 5.238 14.558 15.715 0 4.992-1.213 8.877-3.639 11.654s-6.066 4.166-10.919 4.166c-9.705 0-14.558-5.273-14.558-15.82zm27.889 148.394h-26.749v-117.914h26.749z" />
      <path d="m1027.07 262.109-37.361-117.914h27.981l18.94 67.184c2.1 8.508 3.42 16.559 3.95 24.152h.52c.29-6.75 1.61-14.801 3.95-24.152l18.85-67.184h27.98l-37.36 117.914z" />
      <path d="m1146.52 164.867c-5.67 0-10.12 2.162-13.33 6.487-3.22 4.324-5.06 10.459-5.53 18.404h37.54c-.12-7.945-1.84-14.08-5.18-18.404-3.33-4.325-7.83-6.487-13.5-6.487zm3.77 99.352c-15.79 0-28.13-5.239-37.01-15.715-8.89-10.477-13.33-25.313-13.33-44.508 0-19.758 4.11-35.033 12.32-45.826 8.22-10.793 19.57-16.19 34.07-16.19 13.86 0 24.65 4.747 32.36 14.239 7.72 9.492 11.58 22.605 11.58 39.34v15.609h-63.23c.29 9.141 2.54 16.277 6.75 21.41s10.11 7.699 17.72 7.699c5.9 0 11.49-.738 16.75-2.214 5.26-1.477 10.76-3.833 16.48-7.067v24.891c-4.67 2.812-9.67 4.904-14.99 6.275s-11.81 2.057-19.47 2.057z" />
    </g>
  </g>
</svg>