<svg width="133" height="43" viewBox="0 0 133 43" clip-rule="evenodd" fill-rule="evenodd" stroke-linejoin="round" stroke-miterlimit="2" xmlns="http://www.w3.org/2000/svg">
  <g transform="matrix(.470483 0 0 .470483 .403846 .187549)">
    <path d="m279.5 68.366c0 3.428-2.84 6.21-6.346 6.21-3.502 0-6.346-2.782-6.346-6.21 0-3.43 2.844-6.213 6.346-6.213 3.506 0 6.346 2.782 6.346 6.213" fill="#b2b2b2" />
    <g fill="#ecf8ff">
      <path d="m9.94 39.611v35.213h-9.94v-48.121h9.94v5.61c2.068-5.485 6.222-8.228 12.466-8.228 5.318 0 9.546 1.846 12.68 5.54 3.14 3.695 4.754 8.333 4.852 13.913v31.286h-9.89v-30.912c0-2.774-1.034-5.153-3.104-7.132-2.07-1.98-4.538-2.968-7.404-2.968-2.834 0-5.29.965-7.36 2.897-1.144 1.154-1.894 2.123-2.24 2.902" />
      <path d="m67.802 75.478c-6.214 0-11.212-1.854-15.004-5.562-3.788-3.712-5.732-8.358-5.828-13.938v-29.275h9.94v28.9c0 2.777 1.032 5.16 3.104 7.157 2.068 1.995 4.648 2.991 7.738 2.991 2.834 0 5.294-.988 7.382-2.97 2.082-1.98 3.126-4.372 3.126-7.177v-28.9h9.89v29.274c-.096 5.58-2.024 10.226-5.782 13.938-3.788 3.708-8.648 5.562-14.566 5.562" />
      <path d="m137.06 53.033v-7.158c-.572-3.021-2.118-5.768-4.632-8.23-3.316-3.27-7.328-4.911-12.04-4.911s-8.736 1.64-12.064 4.91c-3.326 3.276-4.99 7.203-4.99 11.789 0 4.61 1.664 8.54 4.99 11.78 3.328 3.246 7.352 4.866 12.064 4.866s8.724-1.62 12.04-4.866c2.514-2.46 4.06-5.188 4.632-8.18m0-23.011v-30.022h9.938v74.823h-9.938v-5.986c-4.778 4.834-10.334 7.25-16.672 7.25-7.516 0-13.924-2.606-19.228-7.812-5.302-5.208-7.954-11.487-7.954-18.842 0-7.358 2.652-13.643 7.954-18.85 5.304-5.205 11.712-7.807 19.228-7.807 6.338 0 11.894 2.416 16.672 7.246" />
      <path d="m196.523 45.688c-.61-2.962-2.138-5.638-4.588-8.043-3.314-3.271-7.326-4.91-12.036-4.91-4.716 0-8.738 1.639-12.064 4.91-3.33 3.274-4.99 7.201-4.99 11.787 0 4.613 1.66 8.55 4.99 11.806 3.326 3.26 7.348 4.887 12.064 4.887 4.71 0 8.722-1.623 12.036-4.864 2.45-2.398 3.978-5.05 4.588-7.949zm.046-15.665v-3.32h9.934v35.774c0 9.353-2.594 16.57-7.782 21.655-5.32 4.579-11.74 6.872-19.254 6.872-7.516 0-13.934-2.293-19.25-6.872-1.082-1.064-2.816-3.215-5.208-6.456l9.84-3.46c1.272 1.495 2.134 2.462 2.58 2.896 3.344 3.245 7.356 4.864 12.038 4.864 7.866 0 13.312-5.048 16.338-15.152-3.09 5.864-8.394 8.795-15.906 8.795-7.518 0-13.926-2.526-19.23-7.576-5.302-5.049-7.954-11.255-7.954-18.611 0-7.358 2.652-13.633 7.954-18.825 5.304-5.19 11.712-7.785 19.23-7.785 6.334 0 11.892 2.4 16.67 7.201z" />
      <path d="m246.382 33.998c-1.114-.842-3.612-1.265-7.498-1.265-4.68 0-8.686 1.631-12.014 4.891-3.328 3.258-4.988 7.194-4.988 11.808 0 3.771.426 6.22 1.288 7.34zm-16.526 29.929c1.656 1.435 4.666 2.151 9.028 2.151 4.714 0 8.744-1.619 12.084-4.865.418-.435 1.26-1.402 2.536-2.896l9.886 3.46c-2.42 3.272-4.172 5.439-5.254 6.498-5.316 5.208-11.736 7.81-19.252 7.81-7.484 0-13.886-2.602-19.204-7.81-5.32-5.206-7.976-11.487-7.976-18.843 0-7.357 2.656-13.64 7.976-18.848 5.318-5.206 11.72-7.808 19.204-7.808 6.432 0 12.072 1.9 16.91 5.705.81.668 1.591 1.369 2.342 2.103.318.313 1.226 1.294 2.72 2.946l-4.966 4.91z" />
    </g>
  </g>
</svg>