<svg clip-rule="evenodd" fill-rule="evenodd" stroke-linejoin="round" stroke-miterlimit="2"
    height="43"
    viewBox="0 0 157 30" xmlns="http://www.w3.org/2000/svg">
    <g fill-rule="nonzero">
        <path
            d="m10.891 17.206c-.368.737-1.42.737-1.788 0l-.882-1.763c-.141-.281-.141-.613 0-.894l.882-1.763c.368-.737 1.42-.737 1.788 0l.882 1.763c.141.281.141.613 0 .894z"
            fill="#686868" />
        <path
            d="m10.891 27.203c-.368.737-1.42.737-1.788 0l-.882-1.763c-.141-.282-.141-.613 0-.894l.882-1.763c.368-.737 1.42-.737 1.788 0l.882 1.763c.141.281.141.612 0 .894z"
            fill="#686868" />
        <path
            d="m0 23.408c0-.891 1.077-1.337 1.707-.707l4.583 4.584c.63.63.184 1.707-.707 1.707h-4.583c-.552 0-1-.448-1-1zm0-4.828c0 .266.105.52.293.708l9.411 9.411c.188.187.442.293.707.293h5.169c.891 0 1.338-1.077.708-1.707l-14.581-14.581c-.63-.63-1.707-.184-1.707.707zm0-9.997c0 .266.105.52.293.707l19.408 19.409c.188.187.442.293.707.293h5.169c.891 0 1.338-1.077.708-1.707l-24.578-24.578c-.63-.63-1.707-.184-1.707.707zm9.997 0c0 .266.105.52.293.707l17.994 17.995c.63.63 1.707.183 1.707-.708v-5.169c0-.265-.105-.519-.293-.707l-17.994-17.994c-.63-.63-1.707-.184-1.707.707zm11.704-5.876c-.63-.63-1.707-.184-1.707.707v5.169c0 .266.105.52.293.707l7.997 7.998c.63.63 1.707.183 1.707-.708v-5.169c0-.265-.105-.519-.293-.707z"
            fill="#d1d1d1" />
        <path
            d="m42.525 23.531-9.413-9.413c-.63-.63-1.707-.184-1.707.707v13.166c0 .553.448 1 1 1h14.581c.552 0 1-.447 1-1v-1.198c0-.553-.45-.994-.998-1.065-1.68-.219-3.252-.987-4.463-2.197zm-6.321 2.262c-.883 0-1.6-.717-1.6-1.6s.717-1.6 1.6-1.6 1.599.717 1.599 1.6-.716 1.6-1.599 1.6z"
            fill="#fff" />
        <path
            d="m0 27.991c0 .553.448 1 1 1h4.583c.891 0 1.337-1.077.708-1.707l-4.584-4.583c-.63-.63-1.707-.184-1.707.707z"
            fill="#686868" />
        <path
            d="m9.997 10.997-8.29-8.29c-.63-.63-1.707-.184-1.707.707v5.169c0 .266.105.52.293.707l9.704 9.705z"
            fill="#686868" />
        <path
            d="m1.707 12.704c-.63-.63-1.707-.184-1.707.707v5.17c0 .265.105.519.293.707l9.704 9.704v-7.998z"
            fill="#686868" />
        <path
            d="m19.994 11.411c0-.265-.105-.519-.293-.707l-7.997-7.997c-.63-.63-1.707-.184-1.707.707v5.169c0 .266.105.52.293.707l9.704 9.705z"
            fill="#a6a6a6" />
        <path d="m9.997 28.991h5.583c.891 0 1.338-1.077.708-1.707l-6.291-6.29z" fill="#a6a6a6" />
        <path
            d="m9.997 10.997v7.584c0 .265.105.519.293.707l9.704 9.704v-7.584c0-.265-.105-.519-.293-.707z"
            fill="#a6a6a6" />
        <g fill="#fff">
            <path
                d="m59.65 25h4.108v-6.812h3.432c3.77 0 6.188-2.236 6.188-5.694s-2.418-5.694-6.188-5.694h-7.54zm4.108-10.322v-4.368h3.016c1.56 0 2.496.832 2.496 2.184s-.936 2.184-2.496 2.184z" />
            <path
                d="m80.81 25.208c4.004 0 6.916-2.86 6.916-6.76s-2.912-6.76-6.916-6.76c-4.056 0-6.916 2.86-6.916 6.76s2.86 6.76 6.916 6.76zm-3.12-6.76c0-2.08 1.248-3.51 3.12-3.51 1.846 0 3.093 1.43 3.093 3.51s-1.247 3.51-3.093 3.51c-1.872 0-3.12-1.43-3.12-3.51z" />
            <path
                d="m94.3 25.208c3.068 0 5.148-1.924 5.148-4.186 0-5.304-7.046-3.588-7.046-5.668 0-.572.598-.936 1.456-.936.884 0 1.95.546 2.288 1.742l3.068-1.274c-.598-1.898-2.808-3.198-5.486-3.198-2.886 0-4.68 1.716-4.68 3.77 0 4.966 6.942 3.588 6.942 5.642 0 .728-.676 1.222-1.69 1.222-1.456 0-2.47-1.014-2.782-2.236l-3.068 1.196c.676 1.976 2.652 3.926 5.85 3.926z" />
            <path
                d="m109.33 24.87-.26-3.302c-.442.234-1.014.312-1.482.312-.936 0-1.56-.676-1.56-1.846v-4.966h3.172v-3.172h-3.172v-3.796h-3.822v3.796h-2.08v3.172h2.08v5.46c0 3.172 2.158 4.68 4.992 4.68.78 0 1.508-.13 2.132-.338z" />
            <path
                d="m122.656 6.8v7.072h-7.228v-7.072h-4.108v18.2h4.108v-7.618h7.228v7.618h4.134v-18.2z" />
            <path
                d="m135.908 25.208c4.004 0 6.916-2.86 6.916-6.76s-2.912-6.76-6.916-6.76c-4.056 0-6.916 2.86-6.916 6.76s2.86 6.76 6.916 6.76zm-3.12-6.76c0-2.08 1.248-3.51 3.12-3.51 1.846 0 3.094 1.43 3.094 3.51s-1.248 3.51-3.094 3.51c-1.872 0-3.12-1.43-3.12-3.51z" />
            <path
                d="m150.201 24.584c1.43 0 2.704-.494 3.38-1.352v1.248c0 1.456-1.17 2.47-2.964 2.47-1.274 0-2.392-.624-2.574-1.69l-3.484.546c.468 2.47 2.99 4.134 6.058 4.134 4.03 0 6.708-2.366 6.708-5.876v-12.168h-3.77v1.118c-.702-.806-1.898-1.326-3.432-1.326-3.64 0-5.928 2.496-5.928 6.448s2.288 6.448 6.006 6.448zm-2.288-6.448c0-1.95 1.144-3.198 2.912-3.198 1.794 0 2.938 1.248 2.938 3.198s-1.144 3.198-2.938 3.198c-1.768 0-2.912-1.248-2.912-3.198z" />
        </g>
    </g>
</svg>